<svg width="103" height="18" viewBox="0 0 103 18" fill="none" xmlns="http://www.w3.org/2000/svg">
<mask id="mask0_1_594" style="mask-type:luminance" maskUnits="userSpaceOnUse" x="0" y="0" width="103" height="18">
<path d="M102.886 0H0.837891V18H102.886V0Z" fill="white"/>
</mask>
<g mask="url(#mask0_1_594)">
<path d="M16.7368 11.7544C17.0457 11.7544 17.1695 12.0893 17.1695 12.8158C17.1375 13.3108 16.9674 13.7916 16.6749 14.2121C16.2871 14.7765 15.8075 15.285 15.2517 15.7196C14.6768 16.1747 14.0305 16.5508 13.3345 16.8368C12.6998 17.1223 12.0018 17.2746 11.2929 17.2836C10.3649 17.2836 9.80842 16.5578 9.49888 15.1056C9.06619 15.7761 8.44778 16.3341 7.70555 16.725C6.82385 17.1821 5.8129 17.3961 4.79786 17.3396C4.27197 17.3518 3.74744 17.2759 3.25149 17.1158C2.75077 16.9301 2.28951 16.6652 1.89084 16.3341C1.54592 16.0121 1.27243 15.6328 1.0867 15.2168C0.909819 14.808 0.825459 14.3715 0.839066 13.9324C0.839066 11.3076 1.82893 9.24084 3.74676 7.73334C4.39307 7.16827 5.1768 6.74784 6.03536 6.5042C6.75582 6.30234 7.50758 6.20784 8.26205 6.2252C8.92673 6.21491 9.5846 6.34863 10.1799 6.61605C10.4268 6.16927 10.6745 5.94555 10.984 5.94555C11.3099 5.94041 11.6317 6.01755 11.912 6.16927C12.2154 6.28434 12.4896 6.45534 12.7154 6.67198C13.1692 7.00563 13.4577 7.48713 13.5203 8.01234C13.2107 8.62691 12.8393 9.24084 12.4685 9.85541C12.2834 10.8512 12.2208 11.8631 12.2828 12.8711C12.2828 14.1561 12.4685 14.826 12.8393 14.826C13.2107 14.826 14.3856 14.0443 16.0558 12.4243C16.3654 11.9222 16.613 11.7544 16.7368 11.7544ZM4.61213 13.1507C4.61213 14.3233 5.1074 14.9378 6.09727 14.9378C6.64085 14.9231 7.17014 14.7746 7.62731 14.5091C8.08517 14.2436 8.4539 13.8701 8.69474 13.4297C8.92673 13.0311 9.13354 12.621 9.31383 12.2012C9.29138 10.6995 9.45738 9.20098 9.80842 7.73334C8.42125 7.98598 7.15041 8.60891 6.15918 9.52048C5.65438 10.0071 5.25571 10.5761 4.98358 11.1958C4.73527 11.8232 4.61009 12.4847 4.61213 13.1507Z" fill="white"/>
<path d="M28.0489 10.1787C28.0489 9.67534 27.7401 9.3957 27.0604 9.3957C26.6482 9.3957 26.1536 9.7872 25.5767 10.5702C25.0351 11.3455 24.6378 12.196 24.4024 13.0883V13.1442C24.4201 13.6913 24.5024 14.2351 24.6501 14.7668C24.7916 15.1461 24.8746 15.5414 24.897 15.9413C24.897 16.4446 24.1555 16.9486 22.7336 17.5079C22.5363 17.5767 22.3274 17.6146 22.1159 17.6198C21.9158 17.6159 21.722 17.5574 21.5594 17.452C21.4008 17.3408 21.2913 17.182 21.2505 17.0046C21.0736 16.4787 20.9899 15.931 21.0029 15.382C21.0029 14.7108 21.0029 14.0391 21.0648 13.4238C21.1267 12.808 21.1267 12.2487 21.1886 11.7453C21.2505 11.242 21.2505 10.7939 21.3124 10.3465C21.3587 10.0315 21.3791 9.71327 21.3743 9.3957C21.3743 8.8917 21.1267 8.61205 20.5709 8.61205C20.0143 8.61205 19.3959 9.17198 18.7163 10.2906C18.1401 11.0999 17.7809 12.0192 17.6659 12.9764C17.6564 13.5987 17.7394 14.2197 17.9128 14.8227C18.0543 15.202 18.138 15.5973 18.1598 15.9972C18.1598 16.5006 17.4182 17.0046 15.997 17.5638C15.7991 17.6326 15.5902 17.6706 15.3786 17.6757C15.1793 17.6718 14.9854 17.6133 14.8221 17.5079C14.6643 17.3967 14.5548 17.2379 14.5133 17.0605C14.3398 16.4575 14.2568 15.8365 14.2663 15.2142C14.2153 13.6238 14.3187 12.0327 14.5752 10.4583C14.8351 9.00355 15.4242 7.61305 16.3059 6.37427C16.4161 6.2007 16.5631 6.04834 16.7386 5.92684C16.9277 5.81884 17.1373 5.74298 17.3563 5.70312C17.9128 5.70312 18.4693 6.09462 18.902 6.93355C19.0415 7.12191 19.1456 7.3302 19.2109 7.54941C19.5123 7.11677 19.9402 6.7677 20.447 6.54205C20.9423 6.30227 21.492 6.16791 22.054 6.15055C22.7826 6.14284 23.4881 6.38198 24.0316 6.8217C24.2895 7.0242 24.4997 7.2717 24.6501 7.54941C24.8018 7.82648 24.8657 8.13634 24.8351 8.44427V8.72391C25.2528 8.16655 25.8297 7.7217 26.5039 7.43755C27.1815 7.15084 27.919 6.99848 28.6674 6.98948C29.0422 6.97148 29.4184 7.00941 29.7797 7.10134C30.1403 7.21384 30.4757 7.3842 30.7689 7.60534C31.0083 7.80977 31.1975 8.05727 31.3247 8.33241C31.4512 8.61655 31.5145 8.92127 31.5104 9.22791C31.5104 9.7872 31.4485 10.4024 31.3866 10.9617C31.3247 11.5216 31.1396 11.9691 31.0158 12.4165C30.892 12.8646 30.7689 13.2561 30.6451 13.5916C30.5736 13.8668 30.5321 14.1483 30.5212 14.4306C30.5212 14.5983 30.5831 14.7108 30.707 14.7108C31.06 14.6536 31.3846 14.4968 31.6336 14.2628C32.005 13.9831 32.3758 13.6476 32.7466 13.312L33.797 12.3606C34.1058 12.0809 34.3535 11.9131 34.4773 11.9131C34.7243 11.9131 34.8481 12.1928 34.8481 12.6961C34.8481 13.7594 34.2297 14.8227 33.0554 15.8853C32.0479 16.8336 30.6757 17.3941 29.2232 17.452C27.987 17.452 27.3693 16.4446 27.3693 14.4306C27.3809 13.7138 27.4843 13.0002 27.6782 12.3046C27.8829 11.6097 28.0068 10.8974 28.0489 10.1787Z" fill="white"/>
<path d="M42.1345 15.2628C41.5766 15.9461 40.831 16.4855 39.9717 16.8281C39.1268 17.2035 38.1954 17.3951 37.2532 17.3868C35.3374 17.3868 33.9781 16.94 32.9896 16.0451C32.527 15.6144 32.1691 15.1001 31.9392 14.5363C31.6827 13.97 31.5772 13.3573 31.6303 12.7479C31.5657 10.9993 32.2521 9.2964 33.5454 7.99654C34.1659 7.33761 34.9489 6.82076 35.832 6.48776C36.713 6.15476 37.658 5.98376 38.6124 5.9844C39.39 5.98247 40.1622 6.09561 40.899 6.31997C41.8875 6.71083 42.3821 7.0464 42.3821 7.38197C42.3821 7.7169 41.7025 7.77283 40.2813 7.77283C39.6241 7.7709 38.9737 7.88469 38.3655 8.1084C37.7498 8.3244 37.1994 8.66897 36.7586 9.11447C36.2783 9.54326 35.8993 10.0569 35.6469 10.6239C35.4299 11.2173 35.3659 11.8485 35.4612 12.4683C35.4598 13.0995 35.7 13.7115 36.1408 14.2008C36.3871 14.436 36.681 14.6257 37.0062 14.76C37.3416 14.8745 37.6981 14.931 38.0566 14.9278C38.7689 14.9523 39.4751 14.7973 40.0955 14.4804C39.5037 14.1423 39.0315 13.6575 38.7363 13.0828C38.4049 12.5165 38.2546 11.8781 38.3036 11.2385C38.2866 10.4908 38.5975 9.76697 39.1689 9.22633C39.4608 8.9364 39.8193 8.70754 40.2194 8.55583C40.6303 8.4009 41.0718 8.32504 41.5167 8.33211C41.8957 8.29868 42.2787 8.3469 42.6331 8.47354C42.9876 8.59954 43.3039 8.80011 43.5557 9.05854C43.972 9.59918 44.1884 10.2446 44.1741 10.9029C44.153 11.7341 43.9421 12.5525 43.5557 13.3065H43.6795C44.036 13.3053 44.3884 13.2403 44.717 13.1156C45.0456 12.9909 45.3442 12.809 45.5953 12.5801L46.1511 12.0768L46.3368 11.909C46.398 11.8537 46.4599 11.8537 46.5838 11.8537C46.8307 11.8537 46.9545 12.1327 46.9545 12.636C46.9845 13.0346 46.9212 13.4345 46.7688 13.8099C46.611 14.1763 46.3565 14.5023 46.0273 14.76C45.4599 15.1991 44.7353 15.4376 43.9883 15.4305C43.3658 15.4273 42.7454 15.3714 42.1345 15.2628ZM41.9494 12.5801C42.2161 12.0723 42.3631 11.5207 42.3821 10.9588C42.3821 10.4561 42.1964 10.1765 41.8256 10.1765C41.7412 10.1874 41.6616 10.2189 41.5963 10.2684C41.531 10.3179 41.482 10.3828 41.4548 10.4561C41.3548 10.6278 41.312 10.8219 41.3317 11.0148C41.333 11.3028 41.3956 11.5875 41.5167 11.8537C41.531 11.9945 41.5773 12.1314 41.6514 12.2568C41.7256 12.3815 41.827 12.4914 41.9494 12.5801Z" fill="white"/>
<path d="M100.264 17.4703C100.779 17.4703 101.282 17.3314 101.71 17.0717C102.138 16.8126 102.472 16.4436 102.669 16.0116C102.866 15.5803 102.917 15.1052 102.817 14.6475C102.717 14.1891 102.468 13.768 102.105 13.4376C101.74 13.1072 101.277 12.8822 100.772 12.7915C100.268 12.7003 99.7436 12.7472 99.2688 12.9259C98.7932 13.1046 98.3864 13.4074 98.1007 13.7957C97.8143 14.184 97.6619 14.641 97.6619 15.1078C97.687 15.7275 97.9694 16.315 98.4517 16.7535C98.9347 17.1919 99.5817 17.4478 100.264 17.4703Z" fill="#C1E9FB"/>
<path d="M73.808 12.1797C74.1168 12.1797 74.2407 12.5153 74.2407 13.2424C74.1876 13.7438 73.9964 14.2247 73.6842 14.6412C73.2964 15.2069 72.8167 15.7167 72.2609 16.1519C71.6854 16.6077 71.0391 16.9851 70.3424 17.2712C69.7301 17.5566 69.0525 17.7096 68.3627 17.7186C67.8443 17.7212 67.334 17.6061 66.8775 17.383C66.4966 17.1696 66.1952 16.8578 66.0115 16.4882C65.7019 15.9842 65.5162 14.9774 65.2693 13.4661C65.1488 12.4317 64.9624 11.4044 64.7121 10.3887C64.2746 10.327 63.8664 10.1522 63.5365 9.88537C63.365 9.79858 63.2337 9.65973 63.165 9.49387C63.0949 9.33251 63.0528 9.1628 63.0412 8.98987C63.0153 8.83173 63.0603 8.67101 63.165 8.54244L63.5365 8.20687C63.9243 8.0468 64.3481 7.9703 64.774 7.98315C65.2046 7.98894 65.6278 8.08473 66.0115 8.2628C66.4836 7.92144 66.8823 7.50358 67.1871 7.03173C67.5136 6.42294 67.6626 5.74858 67.6204 5.07294C67.6238 4.71165 67.5613 4.35294 67.4347 4.0103C67.281 3.67087 67.049 3.36551 66.7537 3.1148C65.9999 2.57737 65.0502 2.31765 64.093 2.38708C63.1759 2.36651 62.2595 2.46101 61.371 2.66737C60.8206 2.81972 60.2832 3.0068 59.7621 3.22665C59.3287 3.45037 58.896 3.61815 58.5245 3.78594C58.2184 3.93765 57.8816 4.0328 57.5347 4.06622C57.2251 4.06622 57.1013 3.95437 57.1013 3.78594C57.1768 3.45358 57.3476 3.14501 57.5966 2.89108C57.9932 2.42887 58.4742 2.03094 59.0198 1.71594C60.5397 0.811439 62.301 0.292653 64.1182 0.213581C65.936 0.135153 67.7443 0.49901 69.3525 1.26851C70.0716 1.62015 70.6703 2.1428 71.0853 2.77922C71.5139 3.41694 71.7092 4.16137 71.6418 4.90515C71.7003 6.09765 71.2826 7.26894 70.4669 8.20687C69.7118 9.07344 68.7049 9.73237 67.5585 10.1091C67.8293 10.6478 68.0361 11.2103 68.177 11.7876C68.3627 12.4034 68.4865 12.9068 68.6722 13.4102C68.7926 13.8422 68.9804 14.2568 69.2294 14.6412C69.3131 14.7666 69.4172 14.8797 69.5383 14.9774C69.6621 15.0893 69.7859 15.0893 69.9716 15.1452C70.3581 15.0777 70.7193 14.9234 71.0234 14.6972C71.4588 14.4066 71.8541 14.0684 72.199 13.6904C72.5705 13.3542 72.9412 13.0187 73.2508 12.6831C73.4358 12.2916 73.6842 12.1797 73.808 12.1797ZM62.6704 3.78594C62.9174 3.78594 62.9793 4.06622 62.9793 4.56958C62.9691 5.07487 62.9276 5.57951 62.8562 6.0803C62.7385 6.9353 62.5316 7.77873 62.2371 8.59837C61.835 9.80887 61.5248 11.0425 61.3091 12.2916V15.7045C61.3533 16.0562 61.2662 16.4104 61.0615 16.7119C60.8594 17.0076 60.5839 17.2564 60.2573 17.4389L59.3287 17.8311C59.0164 17.9507 58.6783 18.0079 58.3388 17.9989C57.5966 17.9989 57.287 17.2712 57.287 15.7604C57.3666 13.8344 57.7633 11.9297 58.4626 10.1091C59.0089 8.2853 59.8206 6.53608 60.8757 4.90515C61.0724 4.62422 61.3241 4.37737 61.6187 4.17808C61.7554 4.05208 61.9194 3.9518 62.0996 3.88494C62.2806 3.81744 62.4745 3.78401 62.6704 3.78594Z" fill="#C1E9FB"/>
<path d="M95.9285 12.186C96.2374 12.186 96.3612 12.5216 96.3612 13.2486C96.3082 13.7488 96.1163 14.2296 95.8047 14.6456C95.4176 15.2106 94.9373 15.7198 94.3822 16.155C93.8066 16.6108 93.161 16.9869 92.465 17.2729C91.7643 17.5596 91.0064 17.712 90.2377 17.7204C89.8989 17.7242 89.5628 17.667 89.2485 17.5526C88.9355 17.4529 88.6579 17.2794 88.4443 17.0492C88.0076 16.6243 87.764 16.065 87.764 15.4845C87.7715 14.841 87.8756 14.2014 88.0729 13.5836C88.3205 12.8571 88.5062 12.1301 88.7532 11.3477C89.2852 9.93793 89.6172 8.47286 89.7431 6.98721C89.7322 6.705 89.6913 6.42407 89.6192 6.14893C89.5709 6.04929 89.4825 5.96957 89.3716 5.92521C89.2553 5.87957 89.128 5.86093 89.0008 5.86929C88.3457 5.94386 87.747 6.24407 87.3306 6.70821C86.7047 7.36971 86.1462 8.08007 85.6611 8.83221C84.5529 10.6142 83.9181 12.6045 83.8059 14.6456L83.929 15.3167C83.9807 15.5372 84.0011 15.7622 83.9909 15.9872C83.9964 16.2649 83.9107 16.5369 83.744 16.7702C83.6127 17.0106 83.4222 17.2215 83.1875 17.3848C82.6929 17.7814 82.0541 18.0006 81.3935 18C81.2105 18.0039 81.0336 17.9441 80.8989 17.8322C80.7614 17.7261 80.656 17.5918 80.5893 17.4407C80.3927 17.0351 80.2873 16.5979 80.2805 16.155C80.339 15.4575 80.4628 14.7651 80.6512 14.0869C80.8989 13.1927 81.2077 12.2419 81.5173 11.2918C82.3214 8.66443 82.7541 6.70821 82.7541 5.4225C82.7636 4.89214 82.68 4.36371 82.5072 3.85714C82.416 3.67136 82.2656 3.51579 82.0738 3.40971C81.986 3.3525 81.8847 3.31264 81.7779 3.29336C81.671 3.27407 81.5608 3.27536 81.4554 3.29786C80.5274 3.29786 79.6001 3.91307 78.7341 5.08693C77.868 6.26079 77.0027 8.10579 76.3224 10.6213C76.1366 11.2918 76.0128 11.8511 75.889 12.2979V12.7453C76.1489 13.6614 76.3142 14.5967 76.3843 15.5404C76.4292 15.8998 76.353 16.263 76.1645 16.5819C75.9774 16.9014 75.6869 17.1617 75.3318 17.3289L74.4038 17.7204C74.0902 17.8348 73.7535 17.8914 73.4147 17.8881C72.5486 17.8881 72.1159 17.1611 72.1159 15.6523C72.1159 14.1429 72.5486 11.2918 73.4147 6.98721C73.7235 5.4225 73.9092 4.58357 73.9092 4.3605C73.9092 3.13071 73.5385 2.45957 72.8582 2.45957C72.6194 2.46279 72.3853 2.52 72.1778 2.62736C71.9819 2.77071 71.7758 2.90121 71.5594 3.01886C71.3383 3.15 71.1315 3.29979 70.941 3.46564C70.7369 3.58007 70.5002 3.63857 70.2607 3.63343C70.013 3.63343 69.8892 3.40971 69.8892 3.01886C69.8879 2.58557 70.0158 2.16064 70.2607 1.78907C70.4866 1.42779 70.8043 1.12114 71.188 0.894214C72.0676 0.318214 73.1337 0.0231429 74.2188 0.0559286C75.7645 0.0559286 76.6931 0.726429 76.9408 2.01214C77.0149 2.41907 77.0564 2.82986 77.0646 3.24193C78.3014 1.11793 79.909 0 81.8881 0C83.9909 0 85.2284 0.894214 85.4754 2.73921C85.5781 3.29271 85.6203 3.85457 85.5992 4.41579V4.58357C86.7122 3.186 88.011 2.5155 89.5573 2.5155C91.7228 2.5155 92.7739 3.68936 92.7739 6.03707C92.7752 7.24757 92.5882 8.45164 92.2174 9.61457C91.8466 11.0121 91.599 11.9629 91.4752 12.5775C91.3275 13.032 91.2445 13.5019 91.2282 13.9751C91.2282 14.5896 91.4752 14.8693 91.9085 14.8693C92.3412 14.8693 93.4542 14.0869 95.1863 12.4656C95.4163 12.339 95.6659 12.2445 95.9285 12.186Z" fill="#C1E9FB"/>
<path d="M59.3831 9.0716C59.8158 9.0716 60.0634 9.4631 60.0634 10.1908C60.0634 11.0188 59.8743 11.8378 59.5062 12.5957C59.0851 13.4983 58.5 14.3302 57.7741 15.0572C56.9611 15.8955 55.9726 16.5802 54.8664 17.0713C53.5908 17.6775 52.1608 17.9675 50.7212 17.9102C49.1681 17.9135 47.6686 17.3953 46.5134 16.4561C45.3385 15.5053 44.7194 14.1065 44.7194 12.2602C44.6997 10.5688 44.9923 8.88581 45.5855 7.28188C46.0774 5.88881 46.8305 4.58317 47.8129 3.42152C48.683 2.46431 49.73 1.65045 50.9063 1.01595C51.9261 0.435451 53.1051 0.125594 54.3093 0.121094C56.1659 0.121094 57.0938 0.848165 57.0938 2.35888C57.1516 3.07759 56.9795 3.79567 56.5985 4.42824C56.2278 4.93224 55.9182 5.21188 55.5468 5.21188C55.3148 5.20674 55.0855 5.16881 54.8664 5.10002C54.6453 5.01645 54.4535 4.88145 54.3093 4.70852C54.1657 4.53559 53.9732 4.39995 53.7527 4.31638C53.5487 4.20195 53.3119 4.14409 53.0717 4.14859C52.6391 4.14859 51.4635 4.09267 50.4736 5.54745C50.0872 6.04117 49.7946 6.58952 49.6075 7.17002C49.0408 8.52902 48.7469 9.96902 48.7408 11.4212C48.8143 11.9375 49 12.435 49.2864 12.8863C49.5729 13.3376 49.9559 13.733 50.4117 14.0505C50.9566 14.3848 51.6111 14.543 52.2676 14.498C52.854 14.4485 53.4242 14.2942 53.9439 14.0447C54.4644 13.7947 54.9249 13.4546 55.2991 13.0438L56.97 11.3653C57.5265 10.806 58.0218 10.2467 58.4545 9.74274C58.8259 9.35124 59.1355 9.0716 59.3831 9.0716Z" fill="#C1E9FB"/>
</g>
</svg>
