<svg width="96" height="19" viewBox="0 0 96 19" fill="none" xmlns="http://www.w3.org/2000/svg">
<mask id="mask0_1_1136" style="mask-type:luminance" maskUnits="userSpaceOnUse" x="0" y="0" width="96" height="19">
<path d="M95.0163 0.92041H0.207794V18.6181H95.0163V0.92041Z" fill="white"/>
</mask>
<g mask="url(#mask0_1_1136)">
<path d="M14.979 12.4762C15.266 12.4762 15.381 12.8055 15.381 13.5197C15.3513 14.0064 15.1933 14.4792 14.9215 14.8925C14.5612 15.4475 14.1156 15.9474 13.5992 16.3747C13.0651 16.8222 12.4647 17.192 11.8181 17.4732C11.2284 17.7539 10.5799 17.9037 9.92129 17.9125C9.05917 17.9125 8.54214 17.1989 8.25456 15.7711C7.85257 16.4303 7.27803 16.979 6.58846 17.3633C5.76931 17.8126 4.83008 18.0231 3.88705 17.9675C3.39847 17.9795 2.91115 17.9049 2.45039 17.7475C1.98519 17.5649 1.55666 17.3045 1.18627 16.979C0.865819 16.6623 0.611733 16.2894 0.439181 15.8804C0.274847 15.4785 0.196472 15.0493 0.209113 14.6176C0.209113 12.0369 1.12875 10.0048 2.91052 8.52264C3.51098 7.96706 4.2391 7.5537 5.03676 7.31415C5.70611 7.11568 6.40453 7.02277 7.10548 7.03983C7.723 7.02972 8.3342 7.16119 8.88725 7.42412C9.11668 6.98484 9.34675 6.76489 9.63434 6.76489C9.93709 6.75983 10.2361 6.83568 10.4965 6.98484C10.7784 7.09798 11.0331 7.26611 11.2429 7.47911C11.6645 7.80715 11.9325 8.28056 11.9906 8.79696C11.7031 9.4012 11.358 10.0048 11.0135 10.6091C10.8416 11.5881 10.7834 12.583 10.8409 13.5741C10.8409 14.8375 11.0135 15.4962 11.358 15.4962C11.7031 15.4962 12.7946 14.7276 14.3463 13.1348C14.6339 12.6411 14.864 12.4762 14.979 12.4762ZM3.7145 13.849C3.7145 15.0019 4.17463 15.6061 5.09428 15.6061C5.59929 15.5916 6.09103 15.4456 6.51577 15.1845C6.94115 14.9235 7.28372 14.5563 7.50747 14.1233C7.723 13.7314 7.91514 13.3282 8.08264 12.9155C8.06178 11.439 8.216 9.96563 8.54214 8.52264C7.25338 8.77104 6.0727 9.38351 5.15179 10.2798C4.68281 10.7582 4.31242 11.3176 4.0596 11.9269C3.8289 12.5438 3.7126 13.1942 3.7145 13.849Z" fill="#005893"/>
<path d="M25.6655 11.0093C25.6655 10.5144 25.3786 10.2394 24.7471 10.2394C24.3641 10.2394 23.9046 10.6244 23.3686 11.3942C22.8655 12.1565 22.4964 12.9927 22.2777 13.87V13.925C22.2941 14.4629 22.3706 14.9976 22.5078 15.5203C22.6392 15.8932 22.7163 16.2819 22.7372 16.6751C22.7372 17.17 22.0483 17.6655 20.7273 18.2154C20.544 18.283 20.3499 18.3203 20.1534 18.3254C19.9675 18.3216 19.7874 18.2641 19.6363 18.1604C19.4891 18.0511 19.3873 17.8949 19.3494 17.7205C19.185 17.2035 19.1073 16.6649 19.1193 16.1252C19.1193 15.4653 19.1193 14.8048 19.1768 14.1999C19.2343 13.5944 19.2343 13.0445 19.2919 12.5496C19.3494 12.0547 19.3494 11.6142 19.4069 11.1742C19.4499 10.8645 19.4688 10.5517 19.4644 10.2394C19.4644 9.7439 19.2343 9.46895 18.718 9.46895C18.2009 9.46895 17.6264 10.0195 16.995 11.1193C16.4596 11.915 16.1259 12.8189 16.0191 13.76C16.0102 14.3718 16.0873 14.9824 16.2485 15.5753C16.38 15.9482 16.4577 16.3369 16.4779 16.73C16.4779 17.225 15.789 17.7205 14.4686 18.2704C14.2847 18.338 14.0907 18.3753 13.8941 18.3804C13.7089 18.3766 13.5288 18.319 13.3771 18.2154C13.2304 18.106 13.1287 17.9499 13.0901 17.7755C12.929 17.1826 12.8518 16.572 12.8607 15.9602C12.8133 14.3965 12.9094 12.8321 13.1476 11.2842C13.3891 9.85388 13.9365 8.48673 14.7556 7.26876C14.858 7.0981 14.9945 6.9483 15.1576 6.82884C15.3333 6.72266 15.528 6.64807 15.7315 6.60889C16.2485 6.60889 16.7655 6.99381 17.1675 7.81865C17.2971 8.00384 17.3938 8.20863 17.4545 8.42416C17.7345 7.99878 18.132 7.65558 18.6029 7.43372C19.0631 7.19797 19.5738 7.06586 20.0958 7.0488C20.7728 7.04121 21.4282 7.27634 21.9332 7.70867C22.1728 7.90777 22.3681 8.15111 22.5078 8.42416C22.6487 8.69658 22.7081 9.00123 22.6797 9.30399V9.57893C23.0678 9.03094 23.6038 8.59355 24.2301 8.31418C24.8597 8.03228 25.5448 7.88249 26.2401 7.87364C26.5883 7.85594 26.9379 7.89323 27.2735 7.98361C27.6085 8.09423 27.9201 8.26172 28.1925 8.47915C28.415 8.68014 28.5907 8.92349 28.7089 9.19401C28.8264 9.47338 28.8852 9.77297 28.8814 10.0745C28.8814 10.6244 28.8239 11.2292 28.7664 11.7791C28.7089 12.3297 28.537 12.7696 28.4219 13.2095C28.3069 13.65 28.1925 14.0349 28.0775 14.3649C28.0111 14.6354 27.9725 14.9122 27.9624 15.1897C27.9624 15.3547 28.0199 15.4653 28.135 15.4653C28.463 15.409 28.7645 15.2548 28.9958 15.0248C29.3409 14.7498 29.6854 14.4199 30.0299 14.0899L31.0058 13.1545C31.2927 12.8795 31.5228 12.7146 31.6378 12.7146C31.8673 12.7146 31.9823 12.9895 31.9823 13.4844C31.9823 14.5299 31.4078 15.5753 30.3168 16.6201C29.3808 17.5524 28.1059 18.1035 26.7565 18.1604C25.608 18.1604 25.0341 17.17 25.0341 15.1897C25.0448 14.485 25.1409 13.7834 25.3211 13.0995C25.5113 12.4162 25.6263 11.7159 25.6655 11.0093Z" fill="#005893"/>
<path d="M38.5754 15.9292C38.0571 16.6011 37.3644 17.1314 36.5661 17.4682C35.7811 17.8374 34.9158 18.0257 34.0404 18.0175C32.2605 18.0175 30.9977 17.5782 30.0793 16.6984C29.6495 16.2749 29.317 15.7693 29.1034 15.2149C28.8651 14.6581 28.7671 14.0558 28.8164 13.4566C28.7564 11.7374 29.3941 10.063 30.5957 8.78501C31.1721 8.13715 31.8996 7.62897 32.72 7.30157C33.5385 6.97416 34.4164 6.80603 35.3032 6.80666C36.0257 6.80477 36.743 6.91601 37.4276 7.1366C38.3459 7.52089 38.8054 7.85083 38.8054 8.18076C38.8054 8.51006 38.174 8.56505 36.8537 8.56505C36.2431 8.56316 35.6388 8.67503 35.0738 8.89499C34.5018 9.10736 33.9904 9.44614 33.5809 9.88416C33.1346 10.3057 32.7826 10.8108 32.5481 11.3682C32.3465 11.9516 32.287 12.5723 32.3755 13.1816C32.3743 13.8023 32.5974 14.404 33.007 14.885C33.2358 15.1163 33.5088 15.3028 33.8109 15.4349C34.1225 15.5474 34.4537 15.603 34.7868 15.5999C35.4486 15.6239 36.1047 15.4716 36.6811 15.16C36.1312 14.8275 35.6926 14.3509 35.4183 13.7859C35.1104 13.229 34.9708 12.6014 35.0163 11.9725C35.0005 11.2374 35.2893 10.5257 35.8202 9.99414C36.0914 9.70908 36.4245 9.48407 36.7961 9.3349C37.1779 9.18257 37.5881 9.10799 38.0015 9.11494C38.3535 9.08208 38.7094 9.12948 39.0387 9.254C39.368 9.37788 39.6619 9.57508 39.8957 9.82917C40.2826 10.3607 40.4836 10.9953 40.4703 11.6425C40.4507 12.4598 40.2548 13.2644 39.8957 14.0058H40.0108C40.342 14.0046 40.6694 13.9407 40.9747 13.8181C41.28 13.6955 41.5574 13.5166 41.7907 13.2916L42.307 12.7967L42.4796 12.6317C42.5365 12.5774 42.594 12.5774 42.709 12.5774C42.9385 12.5774 43.0535 12.8517 43.0535 13.3466C43.0813 13.7385 43.0225 14.1316 42.8809 14.5007C42.7343 14.861 42.4979 15.1814 42.192 15.4349C41.6649 15.8666 40.9917 16.1011 40.2977 16.0941C39.7194 16.091 39.143 16.036 38.5754 15.9292ZM38.4035 13.2916C38.6512 12.7923 38.7878 12.25 38.8054 11.6975C38.8054 11.2033 38.6329 10.9283 38.2884 10.9283C38.2101 10.9391 38.1361 10.97 38.0754 11.0187C38.0147 11.0674 37.9692 11.1312 37.944 11.2033C37.851 11.372 37.8112 11.5629 37.8296 11.7525C37.8308 12.0357 37.889 12.3157 38.0015 12.5774C38.0147 12.7158 38.0577 12.8504 38.1266 12.9737C38.1955 13.0963 38.2897 13.2044 38.4035 13.2916Z" fill="#005893"/>
<path d="M92.5805 18.0979C93.059 18.0979 93.5261 17.9614 93.9243 17.7061C94.3218 17.4513 94.6315 17.0885 94.8148 16.6638C94.9975 16.2397 95.0449 15.7726 94.952 15.3226C94.8591 14.8719 94.6284 14.4579 94.2909 14.133C93.9521 13.8082 93.5217 13.5869 93.0527 13.4978C92.5837 13.4081 92.097 13.4542 91.6558 13.6299C91.214 13.8056 90.836 14.1033 90.5706 14.4851C90.3045 14.8669 90.1629 15.3162 90.1629 15.7751C90.1863 16.3844 90.4486 16.9621 90.8967 17.3932C91.3455 17.8243 91.9466 18.0758 92.5805 18.0979Z" fill="#C1E9FB"/>
<path d="M68.0016 12.896C68.2886 12.896 68.4036 13.226 68.4036 13.9408C68.3543 14.4338 68.1767 14.9066 67.8866 15.3162C67.5263 15.8724 67.0807 16.3736 66.5643 16.8015C66.0296 17.2497 65.4292 17.6207 64.7819 17.9019C64.2131 18.1826 63.5836 18.333 62.9427 18.3419C62.461 18.3444 61.987 18.2312 61.5629 18.0119C61.2089 17.8021 60.9289 17.4955 60.7583 17.1321C60.4707 16.6366 60.2981 15.6468 60.0687 14.1608C59.9568 13.1438 59.7836 12.1338 59.551 11.1351C59.1446 11.0744 58.7654 10.9025 58.4588 10.6402C58.2996 10.5549 58.1776 10.4184 58.1137 10.2553C58.0486 10.0966 58.0095 9.92978 57.9987 9.75976C57.9747 9.60427 58.0164 9.44626 58.1137 9.31985L58.4588 8.98991C58.8191 8.83253 59.2129 8.75731 59.6086 8.76995C60.0086 8.77564 60.4018 8.86982 60.7583 9.0449C61.1969 8.70928 61.5673 8.29844 61.8505 7.83451C62.1538 7.23595 62.2923 6.57292 62.2531 5.90862C62.2562 5.5534 62.1981 5.20072 62.0805 4.86383C61.9377 4.5301 61.7222 4.22987 61.4478 3.98337C60.7475 3.45497 59.8652 3.19962 58.9759 3.26788C58.1239 3.24765 57.2725 3.34057 56.447 3.54346C55.9357 3.69325 55.4364 3.87718 54.9522 4.09335C54.5496 4.3133 54.1476 4.47827 53.8025 4.64324C53.5181 4.7924 53.2052 4.88595 52.8828 4.91882C52.5953 4.91882 52.4802 4.80884 52.4802 4.64324C52.5504 4.31646 52.709 4.01308 52.9404 3.76341C53.3088 3.30896 53.7557 2.91772 54.2626 2.60801C55.6746 1.7187 57.311 1.20863 58.9993 1.13089C60.6881 1.05377 62.3681 1.41152 63.8623 2.1681C64.5304 2.51383 65.0866 3.0277 65.4721 3.65343C65.8703 4.28044 66.0517 5.01236 65.9892 5.74365C66.0435 6.91612 65.6554 8.06774 64.8976 8.98991C64.196 9.84193 63.2606 10.4898 62.1956 10.8602C62.4471 11.3898 62.6393 11.9429 62.7701 12.5105C62.9427 13.116 63.0577 13.6109 63.2302 14.1058C63.3421 14.5305 63.5166 14.9382 63.7479 15.3162C63.8256 15.4394 63.9223 15.5507 64.0348 15.6468C64.1499 15.7567 64.2649 15.7567 64.4375 15.8117C64.7965 15.7454 65.1321 15.5937 65.4146 15.3712C65.8191 15.0855 66.1864 14.753 66.5068 14.3814C66.8519 14.0508 67.1964 13.7209 67.484 13.3909C67.6559 13.006 67.8866 12.896 68.0016 12.896ZM57.6542 4.64324C57.8837 4.64324 57.9412 4.91882 57.9412 5.41372C57.9317 5.91052 57.8932 6.40668 57.8268 6.89906C57.7174 7.7397 57.5253 8.56896 57.2516 9.37484C56.8781 10.565 56.5899 11.7779 56.3895 13.006V16.3616C56.4306 16.7074 56.3497 17.0556 56.1594 17.3521C55.9717 17.6428 55.7157 17.8874 55.4123 18.0669L54.5496 18.4525C54.2595 18.57 53.9453 18.6263 53.6299 18.6174C52.9404 18.6174 52.6528 17.9019 52.6528 16.4166C52.7267 14.523 53.0952 12.6502 53.745 10.8602C54.2525 9.06702 55.0066 7.34719 55.9869 5.74365C56.1695 5.46744 56.4034 5.22473 56.6771 5.0288C56.8041 4.90491 56.9564 4.80631 57.1239 4.74058C57.2921 4.67421 57.4722 4.64134 57.6542 4.64324Z" fill="#C1E9FB"/>
<path d="M88.5529 12.9017C88.8398 12.9017 88.9549 13.2317 88.9549 13.9465C88.9056 14.4383 88.7273 14.911 88.4378 15.32C88.0782 15.8756 87.632 16.3762 87.1162 16.8041C86.5815 17.2522 85.9817 17.6219 85.3351 17.9032C84.6841 18.1851 83.9799 18.3349 83.2657 18.3431C82.951 18.3469 82.6387 18.2907 82.3467 18.1782C82.056 18.0802 81.7981 17.9095 81.5996 17.6833C81.1938 17.2655 80.9676 16.7156 80.9676 16.1448C80.9745 15.5121 81.0712 14.8832 81.2545 14.2758C81.4846 13.5616 81.6571 12.8467 81.8866 12.0775C82.3808 10.6914 82.6893 9.25095 82.8062 7.79026C82.7961 7.51279 82.7582 7.23658 82.6912 6.96606C82.6463 6.86809 82.5641 6.78971 82.4611 6.7461C82.353 6.70122 82.2348 6.68289 82.1166 6.69111C81.508 6.76443 80.9518 7.0596 80.5649 7.51595C79.9835 8.16634 79.4645 8.86476 79.0139 9.60427C77.9843 11.3563 77.3945 13.3132 77.2903 15.32L77.4047 15.9799C77.4527 16.1966 77.4717 16.4179 77.4622 16.6391C77.4672 16.9121 77.3876 17.1795 77.2327 17.4089C77.1108 17.6453 76.9338 17.8526 76.7157 18.0132C76.2562 18.4032 75.6627 18.6187 75.049 18.6181C74.879 18.6219 74.7146 18.5631 74.5895 18.4531C74.4618 18.3488 74.3638 18.2167 74.3019 18.0682C74.1192 17.6693 74.0213 17.2395 74.0149 16.8041C74.0693 16.1183 74.1843 15.4375 74.3594 14.7707C74.5895 13.8915 74.8764 12.9567 75.164 12.0225C75.9111 9.4393 76.3131 7.51595 76.3131 6.25183C76.3219 5.73038 76.2442 5.21083 76.0837 4.71277C75.999 4.5301 75.8593 4.37714 75.681 4.27285C75.5995 4.2166 75.5053 4.17741 75.4061 4.15845C75.3069 4.13949 75.2045 4.14075 75.1065 4.16287C74.2444 4.16287 73.3829 4.76775 72.5783 5.92189C71.7737 7.07603 70.9697 8.89004 70.3376 11.3633C70.1651 12.0225 70.0501 12.5724 69.935 13.0117V13.4516C70.1765 14.3523 70.3301 15.2719 70.3952 16.1998C70.4369 16.5531 70.3661 16.9102 70.191 17.2237C70.0172 17.5379 69.7473 17.7939 69.4174 17.9582L68.5552 18.3431C68.2639 18.4556 67.951 18.5112 67.6362 18.5081C66.8316 18.5081 66.4296 17.7932 66.4296 16.3098C66.4296 14.8257 66.8316 12.0225 67.6362 7.79026C67.9232 6.25183 68.0957 5.42699 68.0957 5.20767C68.0957 3.99854 67.7513 3.33867 67.1192 3.33867C66.8974 3.34183 66.6799 3.39808 66.4871 3.50364C66.3051 3.64459 66.1136 3.77289 65.9126 3.88856C65.7072 4.0175 65.515 4.16477 65.3381 4.32784C65.1485 4.44035 64.9285 4.49786 64.706 4.49281C64.4759 4.49281 64.3609 4.27285 64.3609 3.88856C64.3596 3.46255 64.4785 3.04476 64.706 2.67943C64.9159 2.32421 65.211 2.02272 65.5675 1.7996C66.3848 1.23328 67.3752 0.943164 68.3833 0.975399C69.8194 0.975399 70.6821 1.63464 70.9122 2.89876C70.9811 3.29885 71.0196 3.70273 71.0272 4.10788C72.1763 2.01956 73.6698 0.92041 75.5085 0.92041C77.4622 0.92041 78.6119 1.7996 78.8413 3.61361C78.9368 4.15782 78.976 4.71024 78.9564 5.26202V5.42699C79.9904 4.0529 81.197 3.39366 82.6337 3.39366C84.6455 3.39366 85.622 4.5478 85.622 6.85608C85.6233 8.04625 85.4495 9.23009 85.105 10.3735C84.7605 11.7476 84.5305 12.6824 84.4154 13.2866C84.2783 13.7335 84.2012 14.1955 84.186 14.6607C84.186 15.265 84.4154 15.5399 84.8181 15.5399C85.22 15.5399 86.2541 14.7707 87.8633 13.1767C88.0769 13.0522 88.3089 12.9592 88.5529 12.9017Z" fill="#C1E9FB"/>
<path d="M54.5996 9.83922C55.0016 9.83922 55.2317 10.2241 55.2317 10.9396C55.2317 11.7537 55.056 12.559 54.7141 13.3042C54.3228 14.1916 53.7792 15.0095 53.1048 15.7243C52.3495 16.5485 51.4311 17.2217 50.4034 17.7046C49.2183 18.3006 47.8897 18.5857 46.5523 18.5294C45.1093 18.5326 43.7163 18.0231 42.643 17.0997C41.5515 16.1649 40.9763 14.7895 40.9763 12.9742C40.958 11.3113 41.2298 9.65656 41.7809 8.07957C42.2379 6.7099 42.9376 5.42619 43.8503 4.28405C44.6587 3.34292 45.6314 2.54273 46.7242 1.91889C47.6717 1.34814 48.767 1.04349 49.8858 1.03906C51.6107 1.03906 52.4728 1.75392 52.4728 3.23926C52.5265 3.9459 52.3666 4.65191 52.0126 5.27386C51.6682 5.76939 51.3806 6.04434 51.0355 6.04434C50.82 6.03928 50.6069 6.00199 50.4034 5.93436C50.198 5.85219 50.0198 5.71946 49.8858 5.54944C49.7524 5.37941 49.5735 5.24605 49.3687 5.16388C49.1791 5.05137 48.9592 4.99449 48.7361 4.99891C48.3341 4.99891 47.2419 4.94392 46.3222 6.37427C45.9632 6.8597 45.6914 7.39884 45.5176 7.96959C44.9911 9.30576 44.7181 10.7216 44.7124 12.1494C44.7807 12.6569 44.9532 13.1462 45.2193 13.5899C45.4854 14.0336 45.8412 14.4223 46.2647 14.7345C46.771 15.0632 47.379 15.2187 47.989 15.1744C48.5338 15.1258 49.0635 14.9741 49.5464 14.7288C50.0299 14.483 50.4578 14.1486 50.8054 13.7447L52.3577 12.0944C52.8748 11.5445 53.3349 10.9946 53.7369 10.4991C54.082 10.1142 54.3696 9.83922 54.5996 9.83922Z" fill="#C1E9FB"/>
</g>
</svg>
