<svg width="5" height="10" viewBox="0 0 5 10" fill="none" xmlns="http://www.w3.org/2000/svg">
<path d="M0.990782 9.19354L4.87326 5.32258C4.91935 5.27649 4.95207 5.22657 4.97142 5.17281C4.99078 5.11904 5.0003 5.06144 4.99999 5C4.99999 4.93855 4.99032 4.88095 4.97096 4.82719C4.95161 4.77342 4.91904 4.7235 4.87326 4.67742L0.990782 0.794934C0.883255 0.687407 0.748847 0.633644 0.587557 0.633644C0.426267 0.633644 0.288018 0.691248 0.172811 0.806455C0.0576038 0.921662 9.01284e-10 1.05607 1.22902e-09 1.20968C1.55676e-09 1.36329 0.0576038 1.4977 0.172811 1.61291L3.5599 5L0.172811 8.38709C0.0652843 8.49462 0.0115204 8.62718 0.0115204 8.78478C0.0115204 8.94239 0.0691242 9.07864 0.184331 9.19354C0.299539 9.30875 0.433947 9.36635 0.587557 9.36635C0.741167 9.36635 0.875575 9.30875 0.990782 9.19354Z" fill="white"/>
</svg>
