<svg width="103" height="19" viewBox="0 0 103 19" fill="none" xmlns="http://www.w3.org/2000/svg">
<path d="M69.1233 14.2509H78.305V12.2163H72.2534C73.0881 8.8775 78.2007 8.14714 78.2007 4.44315C78.2007 2.46073 76.8443 1 73.975 1C72.2013 1 70.6362 1.52169 69.5928 2.04338L70.2188 3.92146C71.1579 3.45194 72.2534 3.03459 73.6098 3.03459C74.6532 3.03459 75.6444 3.50411 75.6444 4.70399C75.6444 7.41677 69.645 7.62545 69.1233 14.2509ZM78.5659 11.0164H84.4609V14.2509H86.8085V11.0164H88.791V9.03401H86.8085V1H85.087L78.5659 9.45136V11.0164ZM81.2265 9.13835L84.5653 4.65182C84.5653 5.017 84.4609 6.16472 84.4609 7.2081V9.08618H82.8959C82.4264 9.08618 81.5395 9.13835 81.2265 9.13835Z" fill="#005893"/>
<path d="M2.45194 12.271V8.14966H3.44315C4.33002 8.14966 5.06038 8.25399 5.58207 8.56701C6.10376 8.88002 6.41677 9.40171 6.41677 10.2364C6.41677 11.645 5.58207 12.271 3.59965 12.271H2.45194ZM0 14.2534H3.54749C7.46015 14.2534 8.86871 12.5318 8.86871 10.1321C8.86871 8.51484 8.19052 7.41929 6.99063 6.79327C6.05159 6.27158 4.85171 6.11507 3.39098 6.11507H2.45194V2.98494H7.721L8.34702 1.05469H0V14.2534ZM10.4859 14.2534H12.7814L15.755 9.97557C16.3289 9.19303 16.7462 8.4105 17.0071 7.99315H17.0592C17.0071 8.56701 16.9549 9.29737 16.9549 10.0277V14.2012H19.3025V4.81085H17.0071L14.0334 9.0887C13.5117 9.87123 13.0422 10.6538 12.7814 11.0711H12.7292C12.7814 10.4973 12.8335 9.76689 12.8335 9.03653V4.86302H10.4859V14.2534ZM23.3195 14.2534H25.7193V6.79327H28.5364L29.1624 4.81085H20.4502V6.79327H23.3195V14.2534ZM29.945 19.0008H32.3447V14.2534C32.8142 14.4099 33.2838 14.4621 33.8055 14.4621C36.7791 14.4621 38.7093 12.4275 38.7093 9.50605C38.7093 6.48025 36.9356 4.55 33.5446 4.55C32.2404 4.55 30.9883 4.81085 29.945 5.12386V19.0008ZM32.3447 12.2188V6.68893C32.7099 6.58459 33.0229 6.53242 33.4403 6.53242C35.1618 6.53242 36.2574 7.47146 36.2574 9.50605C36.2574 11.332 35.3705 12.4797 33.5968 12.4797C33.1273 12.4797 32.7621 12.3753 32.3447 12.2188ZM40.1179 14.2534H42.4133L45.3869 9.97557C45.9608 9.19303 46.3782 8.4105 46.639 7.99315H46.6912C46.639 8.56701 46.5868 9.29737 46.5868 10.0277V14.2012H48.9344V4.81085H46.639L43.6654 9.0887C43.1437 9.87123 42.6742 10.6538 42.4133 11.0711H42.3611C42.4133 10.4973 42.4655 9.76689 42.4655 9.03653V4.86302H40.1179V14.2534ZM50.8125 14.2534H53.2123V10.3407H54.6208C54.8817 10.3407 55.1425 10.6016 55.4555 11.2276L56.6554 14.2534H59.2117L57.4901 10.6538C57.1771 10.0277 56.8641 9.66255 56.3946 9.50605V9.45388C57.1771 8.98436 57.2815 7.62797 57.751 6.94977C57.9075 6.7411 58.1162 6.63676 58.4292 6.63676C58.5857 6.63676 58.7943 6.63676 58.9509 6.7411V4.70651C58.69 4.60217 58.2205 4.55 57.9596 4.55C57.1249 4.55 56.6033 4.86302 56.2381 5.3847C55.4555 6.53242 55.4555 8.51484 54.3078 8.51484H53.2123V4.81085H50.8125V14.2534ZM64.5329 14.4621C65.8372 14.4621 67.037 14.0447 67.7674 13.5231L67.0892 11.9058C66.411 12.271 65.785 12.5318 64.8981 12.5318C63.2809 12.5318 62.2375 11.4885 62.2375 9.55822C62.2375 7.83664 63.2809 6.48025 65.0546 6.48025C65.9937 6.48025 66.6719 6.7411 67.3501 7.21062V5.17603C66.8284 4.86302 65.9937 4.55 64.7938 4.55C61.9767 4.55 59.7856 6.63676 59.7856 9.61038C59.7856 12.3232 61.455 14.4621 64.5329 14.4621Z" fill="white"/>
<path d="M96.5639 11.0165C99.1202 11.0165 101.207 8.92978 101.207 6.3735C101.207 3.81722 99.1202 1.73047 96.5639 1.73047C94.0077 1.73047 91.9209 3.81722 91.9209 6.3735C91.9731 8.92978 94.0077 11.0165 96.5639 11.0165Z" stroke="#005893" stroke-width="2.73711"/>
<path d="M99.4854 6.36878H96.9292V3.8125H96.251V7.04697H99.4854V6.36878Z" fill="#005893"/>
</svg>
