<svg width="135" height="24" viewBox="0 0 135 24" fill="none" xmlns="http://www.w3.org/2000/svg">
<path d="M91.3529 17.62H103.373V14.9658H95.4506C96.5433 10.6101 103.236 9.65734 103.236 4.82528C103.236 2.2391 101.461 0.333496 97.7043 0.333496C95.3823 0.333496 93.3334 1.01407 91.9676 1.69464L92.7871 4.1447C94.0164 3.53219 95.4506 2.98773 97.2262 2.98773C98.5921 2.98773 99.8897 3.60025 99.8897 5.16556C99.8897 8.70454 92.0359 8.97677 91.3529 17.62ZM103.714 13.4005H111.432V17.62H114.505V13.4005H117.1V10.8143H114.505V0.333496H112.251L103.714 11.3588V13.4005ZM107.197 10.9504L111.568 5.09751C111.568 5.57391 111.432 7.07117 111.432 8.43231V10.8824H109.383C108.768 10.8824 107.607 10.9504 107.197 10.9504Z" fill="#005893"/>
<path d="M4.07191 15.0351V9.65862H5.3695C6.53051 9.65862 7.48663 9.79474 8.16958 10.2031C8.85253 10.6114 9.26229 11.292 9.26229 12.3809C9.26229 14.2185 8.16958 15.0351 5.57439 15.0351H4.07191ZM0.930355 17.6213H5.50609C10.6282 17.6213 12.4721 15.3754 12.4721 12.2448C12.4721 10.135 11.5843 8.70582 10.0135 7.88913C8.78423 7.20856 7.21346 7.00439 5.30121 7.00439H4.07191V2.92095H10.9697L11.7892 0.402832H0.862061V17.6213H0.930355ZM14.5893 17.6213H17.5942L21.487 12.0406C22.2383 11.0198 22.7846 9.99891 23.1261 9.45445H23.1944C23.1261 10.2031 23.0578 11.1559 23.0578 12.1087V17.5533H26.1311V5.30296H23.1261L19.2333 10.8837C18.5504 11.9045 17.9357 12.9254 17.5942 13.4698H17.5259C17.5942 12.7212 17.6625 11.7684 17.6625 10.8156V5.37101H14.5893V17.6213ZM31.3897 17.6213H34.5313V7.88913H38.2192L39.0387 5.30296H27.6335V7.88913H31.3897V17.6213ZM40.1314 23.8145H43.2047V17.6213C43.8193 17.8255 44.434 17.8936 45.1169 17.8936C49.0097 17.8936 51.5366 15.2393 51.5366 11.4281C51.5366 7.48079 49.2146 4.96267 44.7755 4.96267C43.0681 4.96267 41.429 5.30296 40.0631 5.7113V23.8145H40.1314ZM43.2047 14.9671V7.75302C43.6828 7.6169 44.0925 7.54885 44.6389 7.54885C46.8926 7.54885 48.3268 8.77388 48.3268 11.4281C48.3268 13.8101 47.1658 15.3074 44.8438 15.3074C44.2291 15.3074 43.7511 15.1713 43.2047 14.9671ZM53.3806 17.6213H56.3856L60.2783 12.0406C61.0296 11.0198 61.5759 9.99891 61.9174 9.45445H61.9857C61.9174 10.2031 61.8491 11.1559 61.8491 12.1087V17.5533H64.9224V5.30296H61.9174L58.0246 10.8837C57.3417 11.9045 56.727 12.9254 56.3856 13.4698H56.3173C56.3855 12.7212 56.4538 11.7684 56.4538 10.8156V5.37101H53.3806V17.6213ZM67.381 17.6213H70.5225V12.517H72.3665C72.7079 12.517 73.0494 12.8573 73.4592 13.674L75.03 17.6213H78.3764L76.1227 12.9254C75.7129 12.1087 75.3031 11.6323 74.6885 11.4281V11.3601C75.7129 10.7475 75.8495 8.97805 76.4641 8.09331C76.669 7.82108 76.9422 7.68496 77.352 7.68496C77.5569 7.68496 77.83 7.68496 78.0349 7.82108V5.16684C77.6935 5.03073 77.0788 4.96267 76.7373 4.96267C75.6446 4.96267 74.9617 5.37101 74.4836 6.05159C73.4592 7.54885 73.4592 10.135 71.9567 10.135H70.5225V5.30296H67.381V17.6213ZM85.3424 17.8936C87.0498 17.8936 88.6206 17.3491 89.5767 16.6685L88.6889 14.5587C87.8011 15.0351 86.9815 15.3754 85.8205 15.3754C83.7034 15.3754 82.3375 14.0143 82.3375 11.4962C82.3375 9.25028 83.7034 7.48079 86.0254 7.48079C87.2547 7.48079 88.1425 7.82108 89.0304 8.43359V5.77936C88.3474 5.37101 87.2547 4.96267 85.6839 4.96267C81.996 4.96267 79.1276 7.68496 79.1276 11.5642C79.1276 15.1032 81.3131 17.8936 85.3424 17.8936Z" fill="#0BBBEF"/>
<path d="M127.277 13.4008C130.623 13.4008 133.355 10.6785 133.355 7.34372C133.355 4.00891 130.623 1.28662 127.277 1.28662C123.93 1.28662 121.198 4.00891 121.198 7.34372C121.267 10.6785 123.93 13.4008 127.277 13.4008Z" stroke="#005893" stroke-width="1.769"/>
<path d="M131.101 7.34457H127.755V4.00977H126.867V8.22932H131.101V7.34457Z" fill="#005893"/>
</svg>
