<svg width="139" height="140" viewBox="0 0 139 140" fill="none" xmlns="http://www.w3.org/2000/svg">
<g filter="url(#filter0_dd_1_736)">
<path d="M125.923 64.3662C125.194 63.2032 124.73 61.8882 124.566 60.5183C124.495 60.0086 124.431 59.4962 124.398 58.9823C124.339 58.0816 124.542 57.21 124.738 56.3424C125.12 54.6566 125.367 52.9668 125.066 51.2331C124.684 48.7784 123.631 46.4821 122.028 44.6091C121.279 43.7468 120.366 43.0823 119.45 42.4237C118.414 41.6797 117.437 40.8815 116.817 39.718C116.774 39.6361 116.705 39.5689 116.654 39.4907C116.08 38.6006 115.529 37.6991 115.321 36.6311C115.253 36.2786 115.188 35.9251 115.107 35.5751C114.88 34.5876 114.716 33.5769 114.397 32.6205C113.725 30.6046 112.474 28.9699 110.929 27.5624C109.479 26.2186 107.706 25.2891 105.791 24.8686C105.251 24.7503 104.713 24.6236 104.177 24.4889C103.378 24.3245 102.615 24.0147 101.924 23.5741C101.456 23.2489 100.996 22.9107 100.516 22.6042C99.7692 22.1048 99.1323 21.453 98.6455 20.69C98.2717 20.1361 97.906 19.5767 97.5355 19.0199C96.7863 17.8698 95.828 16.8765 94.7121 16.0938C92.5651 14.6092 90.2113 13.7383 87.6007 13.7404C86.7434 13.7819 85.8894 13.8806 85.0449 14.0363C84.3915 14.1254 83.7434 14.2523 83.09 14.3483C82.2224 14.4731 81.3799 14.2617 80.5346 14.116C79.3142 13.9447 78.1488 13.4884 77.1297 12.7826C76.7559 12.5097 76.3673 12.2546 75.9726 12.0146C75.4332 11.686 74.8972 11.3452 74.3322 11.0685C72.765 10.3327 71.0542 9.9679 69.329 10.0022C67.1387 9.99862 65.0661 10.4757 63.1876 11.6719C62.7062 11.9784 62.2368 12.3045 61.7535 12.6079C61.2824 12.9026 60.8038 13.1817 60.3257 13.4627C59.7603 13.7925 59.094 13.8959 58.4578 13.7524C57.7058 13.6027 56.9505 13.4644 56.2067 13.2779C54.4509 12.7963 52.6068 12.7509 50.8302 13.1457C48.3384 13.7349 46.113 14.8283 44.3701 16.7865C43.8458 17.3757 43.3981 18.0345 42.9085 18.6568C42.5151 19.1562 42.1141 19.6494 41.7115 20.1414C41.4082 20.522 40.9758 20.7733 40.4998 20.846C39.7282 20.9713 38.9597 21.134 38.183 21.2075C35.8895 21.3997 33.7001 22.2702 31.8849 23.7116C29.7742 25.3832 28.2607 27.4666 27.5468 30.1183C27.4091 30.6305 27.2517 31.1374 27.0888 31.6421C26.4905 33.606 25.1662 35.2581 23.397 36.2474C22.7413 36.622 22.0839 36.994 21.4369 37.384C20.6489 37.8426 19.932 38.4182 19.3102 39.0916C16.6045 42.1105 15.3478 45.6104 15.9046 49.7235C16.032 50.6657 16.1401 51.6264 15.9366 52.5725C15.78 53.3033 15.5492 54.017 15.3678 54.7428C15.1547 55.5612 14.7839 56.328 14.2769 56.9988C13.7988 57.6496 13.3053 58.2887 12.8239 58.9372C12.0319 59.979 11.4504 61.1709 11.1131 62.4433C10.9077 63.2116 10.7575 63.994 10.6637 64.7845C10.4181 67.083 10.6802 69.3111 11.7219 71.4008C12.0554 72.0696 12.4097 72.7277 12.753 73.3913C13.0757 74.0153 13.417 74.6487 13.4949 75.3502C13.5943 76.247 13.9323 77.1021 13.885 78.0249C13.8647 78.4253 13.9792 78.8309 13.9985 79.236C14.0437 80.1542 13.8145 81.0345 13.6 81.9143C13.2924 83.1741 12.9714 84.431 12.9528 85.7502C13.0314 86.4479 13.0689 87.1537 13.1965 87.842C13.5861 90.1518 14.5932 92.3079 16.1066 94.0724C16.8448 94.9205 17.7367 95.5892 18.6166 96.2695C19.5591 96.9711 20.3606 97.8511 20.9767 98.8615C21.6192 99.9106 22.0394 101.085 22.2102 102.31C22.3687 103.501 22.4815 104.712 22.9123 105.84C24.4217 109.794 27.0836 112.516 31.1404 113.716C31.9648 113.96 32.7971 114.18 33.6096 114.46C34.73 114.834 35.6867 115.597 36.3111 116.616C36.6879 117.223 37.0586 117.837 37.3928 118.47C38.4665 120.528 40.1161 122.215 42.1315 123.318C43.8239 124.26 45.6104 124.899 47.5584 124.911C48.4606 124.916 49.3643 124.811 50.2669 124.743C51.1225 124.677 51.9777 124.532 52.834 124.702C53.2848 124.792 53.7314 124.905 54.1765 125.02C55.2971 125.31 56.3855 125.674 57.3104 126.423C57.7308 126.763 58.1738 127.075 58.594 127.415C60.2916 128.806 62.3467 129.668 64.5126 129.9C66.9302 130.177 69.2598 129.908 71.4369 128.723C72.0999 128.363 72.7558 127.986 73.4174 127.625C74.042 127.254 74.7243 126.996 75.4349 126.861C76.2079 126.742 76.9825 126.636 77.759 126.543C78.0322 126.501 78.3099 126.5 78.5833 126.541C79.487 126.709 80.3947 126.869 81.2829 127.104C83.0144 127.562 84.7526 127.741 86.5206 127.387C89.7145 126.747 92.3917 125.243 94.3296 122.512C94.4193 122.386 94.5196 122.267 94.6122 122.141C95.359 121.068 96.3091 120.159 97.4067 119.467C98.6472 118.706 99.91 118.105 101.362 117.923C102.245 117.815 103.121 117.651 103.984 117.432C107.386 116.555 111.114 113.226 112.186 109.355C112.307 108.919 112.434 108.485 112.543 108.046C112.87 106.72 113.314 105.467 114.131 104.338C114.961 103.19 115.838 102.134 117.069 101.423C117.443 101.207 117.804 100.968 118.167 100.734C118.917 100.275 119.615 99.7313 120.247 99.1133C121.722 97.5941 122.806 95.7272 123.403 93.6788C123.847 92.3247 124.006 90.8905 123.871 89.4695C123.769 88.5692 123.645 87.6714 123.541 86.7717C123.423 85.9813 123.442 85.1761 123.595 84.3923C123.73 83.7998 123.878 83.2101 124.004 82.6163C124.137 81.9719 124.384 81.358 124.734 80.8046C125.118 80.2012 125.515 79.607 125.926 79.0217C126.836 77.7773 127.498 76.3622 127.872 74.8577C128.096 73.8989 128.217 72.9183 128.234 71.9328C128.266 69.9977 127.961 68.1298 127.075 66.3966C126.725 65.7004 126.34 65.0226 125.923 64.3662ZM124.762 72.6941C124.625 74.2769 124.051 75.7882 123.106 77.052C122.595 77.7547 122.127 78.492 121.672 79.2328C121.231 79.9682 120.908 80.7703 120.715 81.6088C120.648 81.8795 120.541 82.1397 120.451 82.4044C120.425 82.4603 120.403 82.5187 120.386 82.5784C120.287 83.2401 120.193 83.9027 120.094 84.5642C119.991 85.4819 120.01 86.4095 120.151 87.322C120.259 88.2529 120.404 89.181 120.472 90.1146C120.639 92.3857 119.209 95.9285 116.77 97.4974C116.161 97.8898 115.548 98.2781 114.94 98.6734C113.804 99.3677 112.818 100.289 112.041 101.382C111.964 101.495 111.846 101.58 111.761 101.69C111.631 101.858 111.508 102.032 111.392 102.211C111.308 102.34 111.255 102.493 111.162 102.614C110.443 103.573 109.911 104.665 109.598 105.83C109.413 106.474 109.226 107.12 109.073 107.774C108.52 110.133 107.091 111.82 105.157 113.127C104.168 113.763 103.054 114.17 101.894 114.32C100.91 114.478 99.9206 114.632 98.9592 114.888C98.2887 115.106 97.6344 115.373 97.0011 115.686C96.6921 115.818 96.3925 115.974 96.0894 116.12C96.0197 116.152 95.9526 116.19 95.8892 116.233C95.5286 116.494 95.1775 116.77 94.8093 117.019C93.9457 117.619 93.1795 118.354 92.5387 119.196C92.1746 119.66 91.8036 120.119 91.4598 120.599C90.3243 122.18 88.7781 123.136 86.9653 123.691C86.1537 123.945 85.3103 124.077 84.4615 124.084C83.7132 124.064 82.9702 123.952 82.249 123.748C81.2622 123.522 80.281 123.249 79.2814 123.108C78.5763 123.008 77.8462 123.092 77.1271 123.099C77.0049 123.099 76.8838 123.135 76.7614 123.139C76.5329 123.116 76.3028 123.12 76.0755 123.153C75.0039 123.467 73.8581 123.5 72.8458 124.038C72.1659 124.398 71.4798 124.747 70.8043 125.118C69.98 125.569 69.1745 126.071 68.244 126.264C65.5661 126.821 63.0568 126.489 60.8201 124.762C60.1606 124.252 59.4993 123.742 58.8208 123.257C57.9901 122.662 57.064 122.22 56.0842 121.949C55.8807 121.883 55.6808 121.806 55.4853 121.719C55.4038 121.676 55.3188 121.641 55.2314 121.613C54.5858 121.485 53.941 121.355 53.2926 121.243C52.3948 121.114 51.4845 121.104 50.5841 121.213C49.8203 121.285 49.0579 121.375 48.2927 121.425C46.5428 121.54 44.966 120.978 43.4831 120.089C42.2898 119.395 41.3001 118.387 40.6171 117.172C40.2306 116.479 39.8356 115.791 39.4326 115.108C38.2444 113.046 36.3075 111.541 34.0423 110.918C33.4231 110.736 32.8058 110.548 32.1817 110.39C29.6317 109.74 27.8855 108.082 26.6172 105.816C26.0334 104.772 25.8567 103.613 25.6916 102.451C25.5331 101.337 25.4012 100.211 24.9636 99.168C24.1224 97.1633 23.0201 95.34 21.2912 93.9826C20.8168 93.6104 20.3566 93.2194 19.8736 92.8601C18.1528 91.5807 17.182 89.8165 16.6728 87.7523C16.3464 86.4107 16.3549 85.007 16.6976 83.6694C16.9616 82.6739 17.1747 81.6652 17.3361 80.6474C17.4194 79.8868 17.4265 79.1198 17.357 78.3578C17.3424 78.1315 17.2882 77.352 17.2027 76.6562C17.1427 76.1674 17.0911 75.685 17.0301 75.2837C16.8916 73.8895 16.3 72.7397 15.6573 71.5213C15.3301 70.9023 15.003 70.2821 14.7003 69.6493C14.1231 68.3792 13.892 66.9738 14.0312 65.5813C14.0786 64.9739 14.1692 64.3708 14.3021 63.7768C14.5293 62.7505 14.9764 61.7882 15.6113 60.9587C16.1156 60.2886 16.6274 59.6243 17.1173 58.9427C17.7838 57.9861 18.3012 56.9301 18.6507 55.8122C18.8523 55.2065 18.9607 54.5863 19.139 53.9808C19.5205 52.6848 19.4923 51.3564 19.3816 50.0261C19.3361 49.4811 19.2873 48.9363 19.2388 48.3913C19.0627 46.3885 19.6444 44.5931 20.6845 42.9258C21.3635 41.8009 22.3126 40.8707 23.4422 40.2232C24.1803 39.8068 24.9149 39.3832 25.6391 38.9423C26.6198 38.3258 27.4915 37.545 28.2178 36.6335C29.3163 35.2999 30.115 33.7372 30.558 32.0556C30.6932 31.559 30.8642 31.0716 31.0017 30.5765C31.716 27.9859 34.8103 25.0198 38.1156 24.7426C38.955 24.6721 39.7878 24.512 40.6225 24.3953C42.2113 24.1952 43.657 23.3538 44.6332 22.0606C45.1101 21.4487 45.6028 20.8463 46.0374 20.2038C47.5475 17.9718 49.6945 16.8438 52.2596 16.4387C53.4019 16.258 54.5168 16.4716 55.6318 16.7236C56.5739 16.9362 57.5252 17.1076 58.4783 17.259C59.7796 17.4659 60.9786 17.0989 62.0985 16.4577C62.8734 16.0139 63.6334 15.5378 64.367 15.0268C66.7267 13.3831 69.2833 13.1524 71.9812 13.8748C72.6303 14.0692 73.2467 14.3627 73.8093 14.7455C74.5378 15.2094 75.2528 15.6962 75.986 16.1517C76.9422 16.7157 77.9762 17.1297 79.0534 17.3797C79.6486 17.5341 80.2494 17.5897 80.8434 17.7179C82.2546 18.0232 83.6517 17.8441 85.047 17.5866C85.9521 17.4186 86.8553 17.1849 87.7814 17.2427C90.5005 17.4119 92.8058 18.4518 94.4968 20.6953C94.9914 21.3517 95.4177 22.0611 95.8807 22.7422C96.5955 23.78 97.4733 24.6908 98.4785 25.4379C99.0073 25.8384 99.5763 26.1579 100.114 26.533C101.167 27.2715 102.369 27.6509 103.601 27.9423C104.034 28.0445 104.468 28.1475 104.903 28.2406C107.401 28.7755 109.186 30.3046 110.542 32.4345C111.165 33.4142 111.419 34.5201 111.643 35.6438C111.814 36.5961 112.033 37.5386 112.299 38.4678C112.543 39.124 112.831 39.7619 113.163 40.3768C113.281 40.6295 113.413 40.8757 113.54 41.1244C113.576 41.2093 113.619 41.2909 113.669 41.3684C113.918 41.7025 114.187 42.0215 114.423 42.3649C115.102 43.3143 115.93 44.1443 116.872 44.8218C117.291 45.1383 117.71 45.4566 118.139 45.7578C119.926 47.0077 120.927 48.7863 121.496 50.8678C121.909 52.375 121.794 53.8646 121.449 55.3644C121.261 56.1847 121.132 57.0204 121.004 57.8532C120.891 58.6756 120.918 59.5118 121.082 60.3251C121.098 60.3695 121.106 60.4158 121.107 60.4629C121.013 61.1543 121.34 61.7716 121.444 62.4277C121.634 63.6167 122.143 64.6876 122.74 65.7157C123.076 66.2943 123.416 66.8703 123.754 67.4475C124.706 69.0723 124.916 70.8471 124.761 72.6936L124.762 72.6941Z" fill="white"/>
<path d="M101.252 70.0176C101.243 52.0805 86.9544 37.6218 69.5511 37.5472C51.8227 37.4713 37.5859 52.2024 37.5567 69.9526C37.5275 87.7028 51.703 102.462 69.3959 102.47C86.9474 102.477 101.251 87.9039 101.252 70.0176ZM69.3252 99.846C53.0964 99.8073 40.1109 86.3127 40.1323 69.9869C40.1573 53.6311 53.3625 40.1828 69.4133 40.1667C85.8008 40.1951 98.7025 53.8382 98.6794 70.0539C98.6563 86.2347 85.7486 99.8851 69.3252 99.846Z" fill="white"/>
<path d="M102.968 49.9618L101.365 50.5292C101.42 50.7192 101.454 50.8536 101.498 50.9852C101.746 51.7241 102.009 52.4583 102.241 53.2027C102.306 53.4603 102.517 53.6542 102.775 53.6935C105.078 54.2887 107.377 54.9022 109.676 55.511C109.831 55.5521 109.985 55.6018 110.139 55.6476C110.141 55.6836 110.144 55.7196 110.146 55.7554C109.386 56.027 108.629 56.3073 107.865 56.5675C107.088 56.8315 106.328 57.1543 105.518 57.3612L105.212 56.5889L103.596 57.1687L104.918 61.0478L106.541 60.4718L106.211 59.4158C108.244 58.684 110.246 57.9758 112.268 57.2757C112.412 57.653 112.533 57.9669 112.665 58.312L114.28 57.7416C114.235 57.5784 114.205 57.4437 114.161 57.3139C113.911 56.5754 113.636 55.8446 113.415 55.0975C113.343 54.7942 113.093 54.5669 112.789 54.5275C110.451 53.9436 108.118 53.341 105.783 52.7431C105.651 52.7095 105.522 52.6644 105.392 52.6246L105.386 52.5139L110.075 50.858C110.19 51.1292 110.285 51.3536 110.395 51.6142L112.013 51.0425L110.713 47.2266L109.094 47.8011C109.197 48.1578 109.285 48.4657 109.384 48.8091L103.331 50.9451L102.968 49.9618Z" fill="white"/>
<path d="M95.5546 39.9091L94.2209 40.9738C94.3056 41.0993 94.369 41.2037 94.4425 41.2999C94.9319 41.9419 95.4373 42.5719 95.9072 43.2278C96.0476 43.4527 96.3102 43.5674 96.5667 43.5158C97.2836 43.4438 98.0033 43.3958 98.7219 43.3397C100.128 43.2276 101.535 43.1157 102.941 43.0037C103.345 42.9722 103.751 42.9538 104.155 42.929L104.196 43.0318L100.34 46.0984C100.134 45.8558 99.9666 45.6597 99.7827 45.4442L98.4369 46.5172L100.92 49.762L102.271 48.6866L101.626 47.7839C103.32 46.4308 104.985 45.0938 106.682 43.7676L107.378 44.6258L108.721 43.5533C108.628 43.4136 108.566 43.3087 108.493 43.213C107.996 42.558 107.49 41.9098 107 41.2488C106.874 41.0527 106.645 40.9517 106.419 40.9927C104.189 41.196 101.957 41.3808 99.7262 41.5687C99.3809 41.598 99.0344 41.6126 98.6899 41.6338C98.6732 41.6018 98.6567 41.5697 98.6404 41.5378C99.9445 40.5015 101.242 39.4555 102.571 38.419L103.105 39.031L104.455 37.9587C103.638 36.8914 102.84 35.8498 102.015 34.7734L100.657 35.8508C100.882 36.1628 101.067 36.4227 101.27 36.7028L96.2122 40.7232L95.5546 39.9091Z" fill="white"/>
<path d="M26.5501 57.3848C28.6032 58.1029 30.619 58.7768 32.6266 59.504L32.3251 60.4976L33.9502 61.0575C34.4059 59.6931 34.8478 58.3695 35.3037 57.0064C34.7413 56.8122 34.2241 56.6329 33.6817 56.4452C33.5491 56.7932 33.4299 57.1057 33.3009 57.4451L27.2244 55.3374C27.658 53.9646 28.1013 52.6456 28.5655 51.3081L34.6553 53.4201C34.5484 53.7698 34.4547 54.0758 34.3468 54.4293L35.9778 54.9949C36.4359 53.6164 36.8758 52.2926 37.3252 50.939L35.7001 50.3752L35.3365 51.3813L29.2492 49.2693C29.3608 48.9014 29.4541 48.5944 29.5601 48.2443L27.9369 47.6875C26.809 51.0683 25.6919 54.4173 24.5623 57.8027L26.1794 58.364C26.3104 58.0189 26.4241 57.7187 26.5501 57.3848Z" fill="white"/>
<path d="M70.9899 31.3986C71.7396 31.4466 72.4898 31.5119 73.2401 31.5201C74.6427 31.5453 75.8702 30.5251 76.1281 29.1201C76.308 28.2175 76.1568 27.4101 75.4389 26.7775C75.3956 26.7305 75.3586 26.6777 75.329 26.6205C75.5614 26.4045 75.7772 26.1708 75.9743 25.9209C76.4204 25.2586 76.4467 24.5064 76.2767 23.7578C75.9724 22.4172 74.9234 21.5384 73.5018 21.4222C72.0802 21.306 70.6572 21.2189 69.2346 21.1227C69.0697 21.1114 68.9049 21.121 68.7165 21.121C68.6317 21.6912 68.5996 22.2684 68.6208 22.8447L69.5865 22.9786C69.452 25.1724 69.325 27.3144 69.1534 29.4753H68.1458C68.1124 30.0513 68.0801 30.6033 68.0469 31.174C68.1969 31.1939 68.2852 31.2107 68.3743 31.2172C69.2459 31.2789 70.1178 31.343 70.9899 31.3986ZM71.7238 23.0974C72.2938 23.1339 72.8141 23.1351 73.3254 23.2083C73.9563 23.2983 74.3365 24.127 74.092 24.8016C73.9639 25.2706 73.5173 25.5792 73.0425 25.5273C72.6143 25.5089 72.1869 25.4688 71.7594 25.4359C71.6932 25.4215 71.6282 25.4016 71.5651 25.3766C71.6176 24.6154 71.6692 23.8752 71.7238 23.0974ZM71.4523 27.2073C72.0748 27.2481 72.6214 27.281 73.1673 27.3228C73.2585 27.3343 73.347 27.3626 73.4283 27.4061C73.8704 27.6208 74.0901 28.2103 73.962 28.8242C73.8939 29.3548 73.4391 29.7527 72.9139 29.7407C72.4259 29.7239 71.9391 29.6752 71.452 29.6366C71.396 29.6193 71.3425 29.5946 71.2931 29.5629C71.3446 28.8038 71.3967 28.0348 71.4523 27.2073Z" fill="white"/>
<path d="M86.7235 33.5838C86.3798 34.0638 86.0607 34.5265 85.7578 35.0296L89.2033 37.4418L90.171 36.0001L89.329 35.3629L91.2565 32.5053C91.3175 32.7126 91.3559 32.8108 91.3743 32.9133C91.6023 34.1572 91.8147 35.4042 92.0611 36.644C92.1388 36.9469 92.0705 37.2699 91.8776 37.5133C91.5929 37.8954 91.3416 38.3034 91.0516 38.7373L93.7163 40.6016C94.0809 40.0602 94.4229 39.5516 94.7693 39.0373C94.6784 38.9497 94.5788 38.8719 94.4721 38.8052C94.2224 38.6754 94.0616 38.4164 94.0531 38.1311C93.8411 36.8845 93.6158 35.6399 93.4002 34.3938C93.3849 34.2563 93.3781 34.1181 93.38 33.9796C93.6 33.9436 93.779 33.9061 93.9601 33.886C94.9359 33.7782 95.9149 33.6889 96.8874 33.5649C97.397 33.4998 97.8963 33.3969 98.3163 33.9028L99.3877 32.3092L96.6476 30.3935C96.3275 30.8635 96.031 31.2801 95.7562 31.7114C95.6476 31.8995 95.4521 32.0193 95.238 32.0289C94.0489 32.1592 92.8625 32.3133 91.6746 32.4546C91.55 32.4575 91.4252 32.4518 91.3013 32.4376L92.9549 29.9812L93.8461 30.5488L94.8178 29.1088L91.3536 26.6875L90.3865 28.1316L91.1828 28.7409C90.7273 29.5943 87.7864 33.8869 87.5087 34.1029L86.7235 33.5838Z" fill="white"/>
<path d="M31.9738 44.6598L37.087 48.282L36.5189 49.1756L37.9264 50.173L42.4156 43.5848L39.539 41.5492L38.3614 43.2788C38.8536 43.6328 39.3119 43.9623 39.8082 44.3194C39.2978 45.0666 38.8119 45.7769 38.3048 46.5197L36.3597 45.1369L37.4666 43.4663L35.9758 42.4127C35.5862 42.9711 35.2167 43.5001 34.8283 44.0571L33.1648 42.8768C33.683 42.1122 34.1512 41.3912 34.6691 40.6871C35.0874 40.9717 35.451 41.2196 35.8354 41.4812L37.0048 39.7511L34.2704 37.8203L29.7853 44.4049L31.3384 45.5072L31.9738 44.6598Z" fill="white"/>
<path d="M61.4512 32.2649C63.1602 32.2716 64.4423 31.6764 65.3154 30.6284C67.2297 28.333 66.8592 24.7225 64.516 22.8424C62.6507 21.298 59.8932 21.4996 58.2637 23.2998C56.7872 24.8838 56.4775 27.4757 57.5486 29.504C58.4549 31.2192 59.8603 32.1682 61.4512 32.2649ZM59.4964 25.101C59.9097 24.3241 60.7103 23.8386 61.5777 23.8386C62.1297 23.8386 62.6651 24.0354 63.09 24.3949C64.3444 25.5001 64.7228 27.3361 64.0113 28.8622C63.6124 29.6952 62.7788 30.2256 61.8693 30.2256C61.247 30.2256 60.6488 29.9775 60.2037 29.5342C59.4745 28.8245 59.0687 27.8357 59.0849 26.8083C59.071 26.2122 59.2131 25.6227 59.4964 25.101Z" fill="white"/>
<path d="M79.5699 32.7774C81.2702 34.0828 83.6574 33.9923 85.2578 32.5614C85.4441 32.3903 85.5972 32.182 85.7886 31.965L84.0458 30.7619C83.9075 30.88 83.8161 30.9626 83.7198 31.0389C82.2949 32.1712 80.4211 31.5604 79.899 29.7942C79.7287 29.2228 79.7108 28.6151 79.8471 28.0343C80.1013 26.9289 80.6646 26.0472 81.6946 25.5465C82.8272 24.9957 84.2947 25.4313 84.7328 26.5358C84.9109 27.047 85.3506 27.4192 85.8765 27.5037C85.9804 27.5289 86.0793 27.5745 86.1827 27.6062C86.4111 27.6768 86.64 27.7447 86.8994 27.8222C87.1302 27.112 87.3447 26.452 87.5675 25.7659C87.219 25.6459 86.9194 25.529 86.612 25.4393C86.3438 25.3725 86.1144 25.1954 85.9787 24.9504C85.7189 24.4853 85.335 24.1049 84.8717 23.8531C83.6616 23.1612 82.2059 23.0674 80.9199 23.5982C78.8697 24.4142 77.5299 26.5826 77.6259 28.9144C77.6909 30.503 78.3064 31.8184 79.5699 32.7774Z" fill="white"/>
<path d="M44.4501 41.1675C46.5295 40.7206 48.2516 38.6137 47.9782 36.1996C47.9612 35.8052 47.8463 35.4217 47.644 35.085L45.7763 35.978C45.8045 36.146 45.8234 36.2533 45.8401 36.3606C45.8688 36.5108 45.8832 36.6632 45.8832 36.8163C45.8832 38.1227 44.8283 39.1978 43.5461 39.1978C43.4138 39.1978 43.2816 39.1863 43.1512 39.1635C41.5202 38.9386 40.1431 37.3105 40.16 35.632C40.1754 34.1476 41.4041 32.944 42.8568 33.225C43.1523 33.298 43.4646 33.2003 43.6688 32.9706C43.9364 32.7136 44.2266 32.482 44.5031 32.2343C44.5909 32.1551 44.666 32.0606 44.7598 31.959L43.3801 30.3359C43.0725 30.6021 42.8009 30.8284 42.5397 31.0665C42.3937 31.2038 42.2027 31.2808 42.0042 31.2825C41.4959 31.2748 40.9931 31.3912 40.5378 31.6218C39.7147 32.0584 39.0451 32.7455 38.6223 33.5874C37.7038 35.4976 37.912 37.3434 39.1327 39.0193C40.4488 40.8269 42.2385 41.6422 44.4501 41.1675Z" fill="white"/>
<path d="M48.5671 29.6752L48.032 28.4822L49.1726 27.9173C50.1286 29.921 51.0631 31.8803 52.0099 33.8656L51.0984 34.365C51.3641 34.9036 51.586 35.4239 51.8674 35.9238C52.5427 35.5878 53.1658 35.2869 53.7824 34.9722C54.3913 34.6614 55.0267 34.4003 55.6195 34.0312L54.8694 32.4832L53.9181 32.9284L51.0728 26.9647L52.3695 26.3383L52.9536 27.5004L54.8154 26.5733L53.5184 23.8594L45.4179 27.8781L46.717 30.5918L48.5671 29.6752Z" fill="white"/>
<path d="M75.3175 112.171L76.3232 112.091V110.557C76.1409 110.557 76.021 110.552 75.9014 110.557C75.2579 110.584 74.6147 110.631 73.9715 110.635C73.7108 110.621 73.4628 110.756 73.3304 110.985C72.7416 111.863 72.1344 112.726 71.5313 113.593C71.4561 113.7 71.365 113.797 71.2651 113.918C71.1672 113.811 71.1019 113.746 71.0428 113.675C70.3379 112.83 69.6297 111.987 68.9332 111.134C68.8174 110.969 68.6228 110.878 68.4243 110.898C67.9497 110.926 67.4737 110.924 66.9989 110.947C66.6847 110.963 66.3717 111 66.0627 111.027C66.0627 111.339 66.0521 111.588 66.066 111.837C66.0794 112.078 66.1181 112.318 66.1458 112.559H67.103C67.1423 113.546 67.1805 114.503 67.2194 115.478L66.2189 115.565C66.2459 116.094 66.2707 116.582 66.2978 117.111L69.6794 116.956V115.442L68.9806 115.379C68.9502 114.777 68.9212 114.199 68.892 113.622L69.0034 113.579L71.3822 116.338C71.7675 115.801 72.1163 115.312 72.4679 114.824C72.8153 114.342 73.1439 113.844 73.5141 113.38L73.6163 113.421C73.6413 114.005 73.6663 114.588 73.6919 115.186L73.044 115.269C73.0735 115.782 73.1015 116.272 73.1319 116.807L76.4998 116.65V115.086H75.44C75.3995 114.099 75.3594 113.154 75.3175 112.171Z" fill="white"/>
<path d="M79.288 109.777C79.2174 109.845 79.1389 109.905 79.0337 109.995C78.8938 109.571 79.0005 109.102 79.3092 108.784C79.6486 108.419 80.0761 108.151 80.549 108.007C81.058 107.836 81.5728 107.682 82.0839 107.517C82.2831 107.453 82.4791 107.379 82.6908 107.304C82.5246 106.707 82.3708 106.154 82.1962 105.531C81.7151 105.667 81.2888 105.785 80.8644 105.91C80.8078 105.925 80.7593 105.961 80.7294 106.012C80.7765 106.352 80.4901 106.334 80.3144 106.401C79.732 106.6 79.1837 106.89 78.6893 107.262C77.694 108.063 77.2072 109.107 77.454 110.389C77.665 111.412 77.9319 112.421 78.2534 113.413C78.3848 113.796 78.5895 114.149 78.8556 114.45C80.1067 115.923 82.2537 115.587 83.3698 114.551C84.4193 113.576 84.6626 112.096 84.0135 110.681C83.5528 109.603 82.5038 108.902 81.3498 108.902C80.5759 108.902 79.8333 109.218 79.288 109.777ZM81.2598 113.828C80.4119 113.851 79.6444 113.049 79.6394 112.136C79.6477 111.274 80.3319 110.564 81.1767 110.54C82.0052 110.538 82.6522 111.3 82.6605 112.288C82.6614 112.31 82.6621 112.333 82.6621 112.356C82.6621 113.147 82.0356 113.805 81.2591 113.828L81.2598 113.828Z" fill="white"/>
<path d="M100.354 102.71L98.5015 100.46L99.1252 99.8601L98.1539 98.6875L95.5187 100.95L96.4935 102.126L97.1605 101.606L97.6461 102.202L95.6312 103.93C95.4605 103.714 95.3123 103.527 95.1366 103.306L95.7469 102.776C95.408 102.364 95.099 101.988 94.7709 101.589L92.1328 103.851C92.4713 104.262 92.7821 104.639 93.1041 105.029L93.8121 104.481L95.6687 106.736L95.0201 107.352C95.3561 107.76 95.6597 108.127 95.9892 108.527L98.6271 106.264C98.2816 105.847 97.9711 105.472 97.6518 105.085C97.4141 105.272 97.2245 105.421 97.0034 105.595L96.3859 104.834L98.4054 103.105L99.0147 103.868L98.4064 104.447L99.3777 105.623L102.009 103.36L101.044 102.186L100.354 102.71Z" fill="white"/>
<path d="M92.6018 108.823C92.1597 107.95 91.7282 107.098 91.2911 106.235L91.9002 105.848L91.1971 104.484C90.6149 104.791 90.0803 105.092 89.528 105.354C89.272 105.46 89.0934 105.701 89.065 105.981C88.8348 107.303 88.5833 108.621 88.3365 109.94C88.3016 110.071 88.2599 110.199 88.2114 110.326L87.2211 108.373L87.824 107.982C87.5932 107.528 87.3718 107.094 87.1337 106.625C86.1659 107.137 85.2462 107.623 84.2891 108.129L84.9827 109.487L85.6739 109.19L86.9928 111.79L86.3725 112.186C86.5972 112.669 86.8148 113.106 87.0691 113.539C87.6504 113.233 88.1721 112.933 88.7154 112.683C88.9999 112.566 89.1978 112.297 89.2277 111.985C89.4606 110.696 89.7162 109.411 89.9665 108.124C90.0023 108.001 90.0461 107.88 90.0975 107.762C90.4461 108.442 90.7708 109.03 91.0445 109.651L90.419 110.048L91.1149 111.408L93.9586 109.898C93.7083 109.413 93.489 108.988 93.2641 108.554L92.6018 108.823Z" fill="white"/>
<path d="M33.9951 92.434L35.3213 91.7466C34.2786 89.6538 33.2619 87.6124 32.2371 85.5547C31.7788 85.7616 31.3325 85.9951 30.9006 86.2543C31.0303 86.5423 31.1361 86.7782 31.2618 87.0561C30.7743 87.2807 30.3384 87.5092 29.8829 87.6854C29.1132 87.983 28.5117 87.7792 28.0345 87.0993C27.9389 86.9635 27.8506 86.8226 27.7392 86.6539L26.4139 87.3525C26.5846 87.6911 26.7179 87.9719 26.8654 88.2451C27.3602 89.261 28.481 89.8053 29.567 89.5569C30.2755 89.4167 30.9601 89.1731 31.6001 88.8333C31.7444 88.7613 31.8947 88.7018 32.0619 88.6276C32.3193 89.1443 32.5702 89.6008 32.7826 90.1098L30.1829 91.4521L29.7774 90.6813C29.0272 90.9745 28.6452 91.2009 28.461 91.4596L30.0817 94.72C30.5482 94.521 31.0002 94.2884 31.4343 94.024L30.9853 93.0385C31.8704 92.578 32.7047 92.1318 33.5721 91.713L33.9951 92.434Z" fill="white"/>
<path d="M55.0157 109.508C54.8348 109.977 54.3772 110.106 54.0145 110.35C53.9554 110.366 53.8927 110.358 53.8388 110.329C53.6702 110.265 53.5051 110.191 53.307 110.107C53.6026 109.318 53.8854 108.564 54.1838 107.768L51.6991 106.781C51.5107 107.285 51.3387 107.743 51.159 108.221C51.3345 108.298 51.4598 108.352 51.583 108.408C51.717 108.47 51.8496 108.535 52.0102 108.611C51.6541 109.54 51.3161 110.422 50.9598 111.352L50.0763 111.035L49.5273 112.478L52.5934 113.693L53.1369 112.265L52.5891 111.977C52.6871 111.736 52.7775 111.512 52.8635 111.301C53.2399 111.297 53.5679 111.572 53.6355 111.949C53.8541 112.681 54.1151 113.4 54.372 114.119C54.4104 114.265 54.4975 114.393 54.6181 114.481C55.0447 114.682 55.4896 114.841 55.9632 115.029L56.5134 113.583C56.2988 113.496 56.1255 113.437 55.9639 113.355C55.8513 113.312 55.7543 113.235 55.6857 113.135C55.4458 112.583 55.2293 112.021 54.9926 111.431C55.5463 111.106 56.0437 110.8 56.556 110.524C56.6837 110.486 56.82 110.493 56.9439 110.541C57.1585 110.599 57.3655 110.685 57.5996 110.769C57.788 110.271 57.9578 109.826 58.1429 109.338L55.4914 108.286C55.3198 108.726 55.1664 109.118 55.0157 109.508Z" fill="white"/>
<path d="M114.257 73.5034C113.858 73.4861 113.459 73.4988 113.06 73.4976C112.39 73.495 112.287 73.4165 112.08 72.7558C111.987 72.4579 111.894 72.1603 111.8 71.863C111.776 71.7888 111.751 71.7151 111.724 71.6419C111.651 71.4099 111.436 71.2527 111.197 71.2579C110.958 71.2541 110.744 71.4161 110.678 71.6513C110.536 72.0639 110.41 72.4827 110.271 72.8964C110.106 73.393 109.976 73.4909 109.473 73.4964C109.044 73.5019 108.614 73.4899 108.184 73.5017C107.914 73.4686 107.657 73.6387 107.577 73.9037C107.497 74.1624 107.573 74.3717 107.844 74.5884C108.182 74.8586 108.527 75.1178 108.868 75.3861C109.287 75.7166 109.343 75.8834 109.194 76.3941C109.067 76.8283 108.918 77.256 108.797 77.6918C108.686 77.9462 108.776 78.2479 109.007 78.3964C109.217 78.5431 109.502 78.5198 109.687 78.341C109.946 78.1466 110.208 77.9556 110.468 77.7614C111.162 77.243 111.237 77.2413 111.919 77.7396C112.181 77.9316 112.439 78.1276 112.706 78.312C112.988 78.5075 113.212 78.5148 113.428 78.3525C113.644 78.1903 113.691 77.9803 113.597 77.6344C113.576 77.5591 113.551 77.4849 113.528 77.4108C113.42 77.0688 113.305 76.7287 113.204 76.3845C113.065 75.9132 113.128 75.7181 113.513 75.4094C113.863 75.1296 114.219 74.8574 114.573 74.5829C114.733 74.4871 114.839 74.3186 114.856 74.1305C114.857 74.1146 114.858 74.0988 114.858 74.083C114.858 73.7645 114.601 73.5024 114.288 73.5024C114.278 73.5024 114.267 73.5029 114.257 73.5034Z" fill="white"/>
<path d="M28.0624 77.5707C28.3922 77.7982 28.7101 78.0438 29.037 78.2758C29.3858 78.5233 29.6053 78.5463 29.8322 78.3632C30.1122 78.1374 30.071 77.853 29.9735 77.5542C29.8519 77.1841 29.7379 76.8116 29.6258 76.4382C29.4643 75.8994 29.5168 75.7348 29.953 75.3932C30.3063 75.1172 30.6671 74.8532 31.0116 74.5672C31.3414 74.2931 31.3765 73.9235 31.0823 73.6907C30.933 73.587 30.758 73.5287 30.5773 73.5227C30.1647 73.4987 29.7497 73.5181 29.3359 73.5131C28.8272 73.5069 28.7024 73.4133 28.5373 72.9153C28.3999 72.5013 28.2739 72.0834 28.135 71.6704C28.065 71.4352 27.8507 71.2734 27.6095 71.2734C27.3761 71.2734 27.167 71.4254 27.0907 71.6502C27.0523 71.752 27.02 71.8562 26.9859 71.9598C26.8709 72.3157 26.7572 72.6719 26.6415 73.0276C26.5699 73.3278 26.2944 73.5342 25.9917 73.5138C25.7619 73.5119 25.5318 73.5138 25.3019 73.5138V73.5162H24.6121C24.3436 73.4884 24.0876 73.6456 23.9858 73.9002C23.8838 74.1563 23.9724 74.3802 24.2684 74.6202C24.5934 74.8808 24.9279 75.1314 25.2553 75.3882C25.7126 75.7446 25.76 75.8999 25.5838 76.4732C25.4602 76.8755 25.3167 77.2722 25.2159 77.6802C25.1686 77.8566 25.1759 78.0435 25.2369 78.2156C25.373 78.5324 25.7357 78.5982 26.056 78.379C26.4251 78.127 26.7753 77.847 27.1394 77.587C27.3938 77.337 27.7996 77.3298 28.0624 77.5707Z" fill="white"/>
<path d="M109.042 90.6594C108.148 90.1844 107.283 89.7354 106.427 89.2131L106.922 88.3131L107.947 88.8215L108.746 87.2924L106.436 86.0312L103.014 92.5352C103.804 92.9672 104.545 93.3898 105.331 93.7908L106.127 92.2705L105.128 91.695L105.605 90.807C106.496 91.2946 107.363 91.7413 108.206 92.2448C108.058 92.5587 107.935 92.8208 107.803 93.1011L109.131 93.8242L110.894 90.4767L109.56 89.7531C109.377 90.073 109.218 90.351 109.042 90.6594Z" fill="white"/>
<path d="M105.635 96.4471C105.397 96.2599 105.193 96.1001 104.989 95.9393C104.516 95.5661 104.062 95.1655 103.567 94.8252C102.701 94.2303 101.877 94.2862 101.067 94.9591C100.503 95.4243 100.067 96.031 99.8025 96.7193C99.5993 97.187 99.4931 97.6925 99.4902 98.2039L100.617 98.4504C100.675 98.2642 100.714 98.1312 100.758 98.0006C100.946 97.3843 101.303 96.8357 101.788 96.4207C102.226 96.0653 102.591 96.1087 102.997 96.5292C102.776 96.7711 102.575 96.9852 102.379 97.2043C101.95 97.6342 101.637 98.1691 101.47 98.7573C101.276 99.4209 101.492 100.142 102.017 100.581C102.515 101.08 103.268 101.211 103.9 100.909C104.23 100.746 104.532 100.531 104.795 100.271C105.232 99.8589 105.497 99.2909 105.534 98.6853C105.669 98.687 105.802 98.6563 105.922 98.5953C106.402 98.0117 106.86 97.4098 107.345 96.7879L106.161 95.8258L105.635 96.4471ZM104.327 98.6551C104.219 98.8769 104.078 99.0801 103.908 99.2573C103.788 99.402 103.611 99.4855 103.426 99.4855C103.08 99.4855 102.795 99.1953 102.795 98.8425C102.795 98.7101 102.835 98.5807 102.91 98.4725C102.996 98.3266 103.095 98.1883 103.204 98.059C103.402 97.8034 103.605 97.5509 103.807 97.2991C103.841 97.2744 103.878 97.2552 103.917 97.2415C104.614 97.7153 104.679 97.9166 104.326 98.6553L104.327 98.6551Z" fill="white"/>
<path d="M34.4642 96.2866L37.213 99.8275C37.6934 99.4824 38.1068 99.0492 38.432 98.5503C38.6958 98.1444 38.8472 97.6736 38.8706 97.1873C38.8974 95.9026 38.2916 94.9592 37.2485 94.3371C35.2124 93.1225 32.9665 94.677 32.5343 96.5026C32.4535 96.8357 32.43 97.1804 32.4649 97.5216C32.6337 98.9899 33.8617 100.368 35.341 100.76L35.8356 99.606C35.6729 99.4918 35.528 99.4059 35.4013 99.2976C35.097 99.0377 34.7861 98.7828 34.5063 98.4965C34.2197 98.2066 34.0447 97.8212 34.0136 97.411C33.9343 96.9792 34.1109 96.5381 34.4642 96.2866ZM37.0611 95.9948C37.5085 96.5708 37.4958 97.0724 36.9774 97.6164L35.4289 95.6156C36.0222 95.2529 36.6006 95.4015 37.0611 95.9948Z" fill="white"/>
<path d="M61.3239 109.844C61.3216 109.844 61.3192 109.844 61.3169 109.844C59.5926 109.844 58.1738 111.289 58.1738 113.047C58.1738 113.069 58.1741 113.092 58.1745 113.115C58.1745 114.816 59.374 116.292 61.4419 116.307C63.5581 116.322 64.5654 114.555 64.5645 113.073C64.5774 111.261 63.1732 109.861 61.3239 109.844ZM61.3628 114.698C61.3522 114.698 61.3414 114.698 61.3308 114.698C60.5224 114.698 59.8573 114.02 59.8573 113.197C59.8573 113.181 59.8576 113.165 59.858 113.149C59.8507 112.17 60.4991 111.442 61.3753 111.447C61.4038 111.445 61.4323 111.444 61.461 111.444C62.2352 111.444 62.8725 112.093 62.8725 112.883C62.8725 112.916 62.8713 112.95 62.8689 112.983C62.8581 114.131 62.0618 114.759 61.3628 114.698V114.698Z" fill="white"/>
<path d="M46.6241 103.954C45.0132 103.916 43.4446 105.301 43.4182 107.261C43.3947 108.964 44.9541 110.459 46.6967 110.47C48.3887 110.48 49.8291 108.984 49.8378 107.206C49.8463 105.452 48.3863 103.996 46.6241 103.954ZM46.5683 108.835C45.764 108.832 45.1036 108.157 45.1036 107.337C45.1036 107.325 45.1039 107.313 45.1041 107.301C45.1041 106.378 45.8399 105.573 46.6866 105.565C47.5003 105.565 48.1741 106.238 48.1892 107.067C48.1845 107.991 47.4146 108.83 46.5683 108.835V108.835Z" fill="white"/>
<path d="M44.7179 102.786C44.5954 102.639 44.4633 102.5 44.3225 102.371C44.0542 102.162 43.8538 101.876 43.7473 101.55C43.549 101.039 43.2181 100.592 42.7902 100.257C41.8208 99.4242 40.7376 99.2068 39.5781 99.7235C38.4165 100.191 37.6353 101.323 37.5974 102.595C37.4754 104.6 39.3699 106.31 41.3238 106C41.6823 105.977 42.0235 105.835 42.2956 105.595C42.1571 105.372 42.0273 105.162 41.8952 104.953C41.7562 104.732 41.6149 104.512 41.4903 104.316C41.2056 104.368 40.9171 104.396 40.6276 104.4C39.8461 104.347 39.231 103.677 39.231 102.879C39.231 102.817 39.2347 102.754 39.2423 102.692C39.3516 101.786 40.2039 101.075 41.0442 101.189C41.7774 101.307 42.3516 101.905 42.4522 102.655C42.456 102.806 42.5014 102.953 42.5836 103.078C42.9051 103.407 43.2577 103.705 43.6199 104.033L44.7179 102.786Z" fill="white"/>
<path d="M115.461 52.886C115.284 52.8426 115.118 52.7578 114.978 52.6383C114.41 52.1221 114.321 51.2389 114.775 50.6161C114.82 50.5554 114.86 50.4913 114.901 50.4306L114.397 48.9688C113.701 49.5042 113.227 50.1049 113.178 50.9636C113.117 51.9087 113.418 52.8418 114.017 53.5661C114.572 54.2578 115.319 54.4983 116.253 54.4301C116.106 53.9936 115.966 53.6319 115.865 53.2597C115.824 53.06 115.66 52.909 115.461 52.886Z" fill="white"/>
<path d="M76.6924 71.8178C76.1307 71.4991 75.5525 71.2118 74.9601 70.9569C74.6704 70.824 74.3595 70.7388 74.0289 70.6209C74.0475 70.294 74.0708 69.984 74.0814 69.6737C74.1033 69.0307 73.8108 68.7259 73.1852 68.6853C72.803 68.6688 72.4228 68.6191 72.0488 68.5363C70.3472 68.1201 68.94 67.1587 67.6408 66.0096C67.4178 65.8123 67.3996 65.6535 67.5744 65.3475C67.9291 64.7268 68.2657 64.0908 68.671 63.5055C70.0841 61.5137 71.7198 59.696 73.5451 58.0895C74.7069 57.0419 75.9097 56.0456 77.3134 55.3374C77.4223 55.28 77.5216 55.2056 77.6078 55.1168C78.2294 54.4897 78.8561 53.8665 79.4621 53.2245C79.7174 52.9813 79.8627 52.6408 79.8627 52.2846C79.8627 51.9558 79.7391 51.6393 79.5172 51.4005C78.8377 50.6565 78.1307 49.9365 77.4039 49.2422C76.9027 48.7533 76.0977 48.7646 75.6099 49.2676C75.4957 49.3718 75.3904 49.4865 75.2818 49.5969C71.5606 53.3908 67.8394 57.1854 64.1181 60.9805C63.9483 61.2032 63.6949 61.3443 63.4191 61.3695C63.031 61.3969 62.6683 61.5778 62.409 61.8735C61.3131 62.9907 60.2092 64.1002 59.1234 65.227C58.7855 65.551 58.5938 66.0034 58.5938 66.4762C58.5938 66.9422 58.7803 67.3889 59.1098 67.7122C59.8097 68.4578 60.5349 69.1795 61.2561 69.9043C61.5955 70.2823 62.0974 70.4654 62.595 70.3929C63.0409 70.3173 63.2439 70.5206 63.4165 70.8991C63.2517 70.9732 63.1 71.0431 62.9469 71.1086C62.2302 71.3911 61.5625 71.788 60.9685 72.2846C60.2273 72.8913 59.8031 73.8155 59.8208 74.7842C59.8321 79.8203 59.8255 84.8561 59.8276 89.8922C59.8239 90.0641 59.8397 90.2359 59.8747 90.4039C59.9638 90.7526 60.2751 90.9979 60.6286 90.9979C60.8569 90.9979 61.0738 90.8959 61.2217 90.719C61.3727 90.5388 61.4476 90.3048 61.4301 90.0684C61.4266 89.3021 61.4266 88.5358 61.4301 87.7695C61.4301 87.6377 61.4518 87.5055 61.4671 87.3375C61.5663 87.3732 61.6635 87.414 61.7587 87.4596C62.8096 88.0131 63.9328 88.4105 65.0941 88.6395C65.2138 88.6673 65.336 88.6827 65.4587 88.6853C65.4653 88.6855 65.4719 88.6855 65.4785 88.6855C65.9093 88.6855 66.2637 88.3243 66.2637 87.8854C66.2637 87.5523 66.0595 87.2525 65.7534 87.1359C65.5826 87.0696 65.3942 87.0531 65.2197 86.9962C64.4469 86.744 63.6652 86.5143 62.9099 86.2164C62.5463 86.0501 62.2069 85.8339 61.9012 85.5732C61.5747 85.3256 61.3941 84.9243 61.4233 84.5105C61.4429 83.7603 61.4268 83.0094 61.4306 82.2584C61.4393 82.1367 61.4556 82.0155 61.4796 81.896C61.9652 82.1382 62.3936 82.3813 62.844 82.5714C64.8459 83.4173 66.9479 83.707 69.0992 83.707C69.1606 83.7087 69.2219 83.7049 69.2826 83.6955C69.5782 83.6497 69.8225 83.4337 69.9087 83.1418C70.0019 82.8692 69.9341 82.5651 69.7341 82.3606C69.5634 82.1775 69.3222 82.0794 69.0747 82.0921C68.3092 82.0484 67.5419 82.0136 66.7802 81.9313C65.6179 81.8134 64.4794 81.5202 63.4019 81.0611C62.8734 80.846 62.3842 80.5419 61.9546 80.1615C61.688 79.9674 61.5079 79.6724 61.4546 79.3429C61.4209 78.6491 61.4445 77.9521 61.4445 77.1829C61.8449 77.3956 62.1713 77.5885 62.514 77.7474C62.8621 77.9092 63.2206 78.0486 63.583 78.1772C63.9302 78.3006 64.2832 78.4105 64.6398 78.502C65.0112 78.598 65.3885 78.6712 65.7658 78.7386C66.1431 78.806 66.5228 78.8632 66.9036 78.9066C67.2845 78.95 67.6672 78.9812 68.0497 79.0014C68.4173 79.0211 68.7862 79.0254 69.154 79.0254C69.5377 79.0254 69.9218 79.0206 70.3048 79.0014C70.6878 78.9822 71.07 78.9498 71.4509 78.9054C71.8317 78.861 72.2106 78.8008 72.5875 78.7314C72.9643 78.662 73.3411 78.5848 73.7119 78.489C74.0682 78.3973 74.4224 78.2912 74.7689 78.1664C75.1297 78.0368 75.4856 77.8888 75.8337 77.727C76.1721 77.57 76.4983 77.3855 76.8375 77.2089C76.857 77.259 76.8718 77.3109 76.8822 77.3636C76.8855 78.8024 76.8876 80.2412 76.8886 81.68C76.8914 81.998 76.7642 82.3035 76.5376 82.5224C76.3097 82.7533 76.0602 82.9616 75.7934 83.1442C75.1928 83.5239 74.5407 83.8117 73.8581 83.9984C73.5642 84.0865 73.2648 84.1568 72.9709 84.2446C72.6617 84.3149 72.4276 84.5775 72.3885 84.8979C72.3805 84.944 72.3764 84.9908 72.3764 85.0378C72.3764 85.4772 72.7314 85.8392 73.1629 85.8392C73.2434 85.8392 73.3232 85.8264 73.4 85.8017C74.4834 85.5718 75.5256 85.1727 76.4891 84.6181C76.5982 84.5535 76.7164 84.505 76.8914 84.4189V89.8466C76.8857 90.0029 76.8907 90.1594 76.906 90.3149C76.9592 90.7078 77.2922 91.0037 77.6816 91.0037C78.0751 91.0037 78.4105 90.7013 78.4585 90.3034C78.4736 90.132 78.4781 89.9599 78.4722 89.7881V79.0434C78.4722 77.5732 78.4621 76.1032 78.4762 74.633C78.4944 73.9043 78.2188 73.199 77.7138 72.6827C77.4124 72.3499 77.0687 72.059 76.6924 71.8178ZM72.3868 70.2794C72.3967 70.402 72.3958 70.5252 72.384 70.6476C72.1598 71.8696 71.5632 72.9892 70.6793 73.8465C70.5003 74.0402 70.2473 74.1453 69.9864 74.1345C69.0382 74.1174 68.0893 74.128 67.0942 74.128C66.4896 72.3691 65.5433 70.7522 64.3122 69.3741L66.4877 67.1606C68.1825 68.6445 70.0629 69.8702 72.3868 70.2794ZM76.625 50.7043C76.995 51.0868 77.4039 51.5087 77.8118 51.9318C77.9077 52.0314 77.999 52.1351 78.114 52.2604C78.033 52.3624 77.9656 52.461 77.8853 52.547C77.1856 53.3332 76.3747 54.009 75.4797 54.5521C74.2632 55.256 73.2093 56.2043 72.1748 57.1623C70.4565 58.7257 68.8983 60.4626 67.5238 62.3463C67.227 62.7605 66.9512 63.1906 66.6905 63.577C66.2173 63.097 65.7548 62.629 65.3365 62.2054L76.625 50.7043ZM62.4231 68.8001C61.6765 68.0501 60.9231 67.2881 60.2238 66.552C61.4014 65.3532 62.5343 64.1986 63.6836 63.0284C64.4759 63.7136 65.2135 64.4621 65.8893 65.2668C65.7185 65.5819 62.8456 68.5269 62.4231 68.801V68.8001ZM76.7032 75.052C76.4769 75.3458 76.2107 75.6052 75.9128 75.8226C75.1443 76.3439 74.2846 76.7092 73.3805 76.899C70.2085 77.6502 67.0565 77.6262 63.9401 76.5909C63.2936 76.3864 62.6876 76.0672 62.1501 75.6479C61.2104 74.8958 61.1972 74.1906 62.1216 73.4361C62.7832 72.9239 63.538 72.551 64.3423 72.3388C64.3984 72.3335 64.4549 72.3359 64.5103 72.3463C64.8598 72.8795 65.1419 73.4555 65.3501 74.0606C65.2011 74.1006 65.0857 74.1237 64.9754 74.1626C64.6306 74.2814 64.4029 74.6207 64.4189 74.9913C64.4561 75.3782 64.7588 75.6875 65.1384 75.7264C65.276 75.7381 65.4142 75.7417 65.5522 75.7377H72.779C72.917 75.7422 73.055 75.7379 73.1925 75.7252C73.5847 75.676 73.8826 75.3328 73.8826 74.9303C73.8826 74.523 73.5778 74.1774 73.1805 74.134C73.0197 74.1146 72.8572 74.11 72.6593 74.0963L73.6579 72.2303C74.6471 72.5299 75.6047 72.8865 76.3876 73.6077C76.5115 73.7243 76.6205 73.8566 76.7119 74.001C76.9484 74.3102 76.9446 74.7479 76.7032 75.053V75.052Z" fill="white"/>
<path d="M79.5041 68.4763C79.0936 68.4335 78.6797 68.435 78.2697 68.4811C77.8728 68.5303 77.5737 68.8818 77.5822 69.2891C77.6029 69.7122 77.9381 70.0547 78.3531 70.077C78.5356 70.0922 78.7205 70.0797 78.9044 70.0797C79.0728 70.0797 79.2417 70.0886 79.4096 70.078C79.8234 70.0686 80.1675 69.7384 80.2017 69.3182C80.2309 68.8941 79.9193 68.518 79.5041 68.4763Z" fill="white"/>
<path d="M73.5615 62.4638C73.1444 62.4271 72.7716 62.7461 72.7348 63.1711C72.6896 63.5733 72.6875 63.9796 72.7282 64.3824C72.7544 64.7942 73.094 65.1187 73.4989 65.1187C73.5257 65.1187 73.5526 65.1172 73.5794 65.1143C73.9928 65.0779 74.3131 64.7191 74.3095 64.2962C74.3192 64.1251 74.3112 63.9532 74.3112 63.7816C74.3112 63.61 74.3199 63.438 74.3093 63.2671C74.3006 62.8452 73.9746 62.4948 73.5615 62.4638Z" fill="white"/>
<path d="M77.625 64.2193C77.5286 64.2277 77.4354 64.2579 77.352 64.3078C76.9629 64.6541 76.5981 65.0276 76.2597 65.4252C76.0423 65.7003 76.1551 66.1126 76.4106 66.3593C76.6624 66.6341 77.0823 66.6708 77.3763 66.4436C77.7168 66.1539 78.0329 65.8356 78.3207 65.4917C78.5155 65.2556 78.5353 64.9148 78.3695 64.6565C78.2239 64.3784 77.9342 64.2082 77.625 64.2193Z" fill="white"/>
<path d="M97.6621 69.5312C97.6614 69.5312 97.6607 69.5312 97.66 69.5312C97.4414 69.5312 97.2617 69.7144 97.2617 69.9371C97.2617 69.957 97.2631 69.9767 97.266 69.9964C97.266 69.9973 97.266 69.9985 97.266 69.9995C97.266 70.2169 97.4414 70.3955 97.6546 70.3955C97.6628 70.3955 97.6713 70.3952 97.6795 70.3948C97.8908 70.3811 98.0576 70.2001 98.0576 69.9844C98.0576 69.9743 98.0571 69.964 98.0564 69.9536C98.0566 69.9484 98.0566 69.9431 98.0566 69.9378C98.0566 69.7165 97.8793 69.5336 97.6621 69.5312Z" fill="white"/>
<path d="M41.4628 66.0411C41.6835 66.0411 41.8669 65.8599 41.8735 65.6351C41.8512 65.4303 41.6922 65.2669 41.4915 65.2422C41.4911 65.2422 41.4903 65.2422 41.4899 65.2422C41.2694 65.2422 41.0881 65.427 41.0881 65.6516V65.6519C41.0956 65.8597 41.2591 66.0294 41.4628 66.0411Z" fill="white"/>
<path d="M50.6462 91.125C50.426 91.1245 50.2428 91.3043 50.2346 91.5284C50.2583 91.7324 50.4154 91.8956 50.6149 91.9239C50.8351 91.9215 51.0155 91.737 51.0172 91.5126C51.0146 91.3045 50.8502 91.1329 50.6462 91.125Z" fill="white"/>
<path d="M41.8776 74.4274C41.8713 74.2123 41.696 74.0391 41.485 74.0391C41.2693 74.0391 41.0919 74.2198 41.0919 74.4394C41.0919 74.4435 41.0922 74.4473 41.0922 74.4514C41.0985 74.6664 41.2737 74.8397 41.485 74.8397C41.7005 74.8397 41.8779 74.659 41.8779 74.4394C41.8779 74.4353 41.8776 74.4315 41.8776 74.4274Z" fill="white"/>
<path d="M89.7684 89.5625C89.5496 89.5791 89.3765 89.7641 89.3711 89.9878C89.3885 90.1956 89.5612 90.3574 89.7658 90.3579C89.9707 90.3612 90.1441 90.1971 90.1558 89.9887C90.1639 89.7636 89.9891 89.5716 89.7684 89.5625Z" fill="white"/>
<path d="M91.2174 87.922C91.0132 87.916 90.8375 88.0749 90.8189 88.282C90.8078 88.5062 90.9762 88.7011 91.1957 88.7183C91.3983 88.7085 91.5678 88.5547 91.601 88.3509C91.6072 88.1275 91.4364 87.9364 91.2174 87.922Z" fill="white"/>
<path d="M54.0126 46.2547C54.2156 46.2415 54.3804 46.0774 54.3981 45.8707C54.3925 45.6468 54.2158 45.4632 53.9963 45.4531C53.7938 45.4687 53.631 45.6343 53.6155 45.8407C53.6155 45.8446 53.6152 45.8482 53.6152 45.852C53.6152 46.073 53.7938 46.2547 54.0104 46.2547C54.0111 46.2547 54.0119 46.2547 54.0126 46.2547Z" fill="white"/>
<path d="M57.834 95.9148C57.6303 95.9307 57.473 96.1104 57.4807 96.3185C57.4932 96.5254 57.6557 96.6929 57.8588 96.7078C58.0773 96.6965 58.254 96.5156 58.2636 96.2926C58.2448 96.0701 58.0528 95.9012 57.834 95.9148Z" fill="white"/>
<path d="M82.9003 94.9062C82.6916 94.9158 82.5251 95.0935 82.5251 95.3061C82.5251 95.5127 82.682 95.687 82.8838 95.705C83.1045 95.7136 83.2946 95.5398 83.3104 95.3154C83.3002 95.0918 83.1201 94.912 82.9003 94.9062Z" fill="white"/>
<path d="M64.069 97.8834C63.8646 97.8721 63.6842 98.025 63.6576 98.2319C63.6555 98.2489 63.6543 98.2662 63.6543 98.2832C63.6543 98.5031 63.8319 98.6838 64.0474 98.6838C64.2631 98.6838 64.4405 98.5031 64.4405 98.2832C64.4405 98.0718 64.2763 97.8949 64.069 97.8834Z" fill="white"/>
<path d="M59.8079 43.3248C60.008 43.2996 60.1682 43.1405 60.1979 42.9372C60.196 42.7126 60.0165 42.5278 59.7963 42.5234C59.5858 42.5268 59.4141 42.7042 59.4141 42.919C59.4141 42.9288 59.4145 42.9384 59.4152 42.9482C59.4386 43.1534 59.6053 43.3133 59.8079 43.3248Z" fill="white"/>
<path d="M70.4089 41.6276C70.6291 41.6254 70.809 41.4404 70.8093 41.216C70.8032 41.0012 70.6282 40.8281 70.4174 40.8281C70.4082 40.8281 70.3992 40.8284 70.39 40.8291C70.1887 40.855 70.0342 41.0276 70.0273 41.2342C70.0495 41.4389 70.2082 41.6026 70.4089 41.6276Z" fill="white"/>
<path d="M44.1125 82.4063C43.8907 82.4025 43.7029 82.5808 43.6914 82.8066C43.7044 83.0152 43.8645 83.1853 44.0682 83.2074C44.073 83.2077 44.0777 83.2077 44.0824 83.2077C44.2983 83.2077 44.4762 83.0265 44.4762 82.8064C44.4762 82.5978 44.3165 82.4224 44.1125 82.4063Z" fill="white"/>
<path d="M70.5112 98.3672C70.3079 98.3794 70.1405 98.5393 70.1153 98.7452C70.112 98.9696 70.2879 99.158 70.5079 99.1661C70.7123 99.1661 70.8843 99.0037 70.9 98.7961C70.904 98.5714 70.7312 98.3809 70.5112 98.3672Z" fill="white"/>
<path d="M74.7412 42.1221C74.9442 42.1027 75.1051 41.9338 75.118 41.7264C75.1105 41.5006 74.9256 41.3194 74.704 41.3203C74.5 41.3362 74.3389 41.5087 74.334 41.7173C74.334 41.718 74.334 41.7185 74.334 41.7192C74.334 41.9402 74.5125 42.1224 74.7297 42.1224C74.7334 42.1224 74.7374 42.1221 74.7412 42.1221Z" fill="white"/>
<path d="M95.6333 80.375C95.4134 80.3805 95.2351 80.566 95.2344 80.7902C95.2358 80.9988 95.4011 81.1708 95.6056 81.1771C95.826 81.1785 96.0095 80.9968 96.0142 80.7722C95.9906 80.5677 95.8335 80.4038 95.6333 80.375Z" fill="white"/>
<path d="M97.1797 67.7015C97.1844 67.9103 97.3469 68.0831 97.5513 68.0965C97.772 68.0987 97.9579 67.9211 97.9694 67.6965C97.956 67.4891 97.797 67.3197 97.5942 67.2969C97.3733 67.2969 97.1891 67.4766 97.1797 67.7015Z" fill="white"/>
<path d="M84.8382 93.779C84.8165 93.7754 84.7948 93.7734 84.7729 93.7734C84.5567 93.7734 84.3789 93.9546 84.3789 94.175C84.3789 94.3703 84.5188 94.5385 84.7077 94.5709C84.7294 94.5745 84.751 94.5765 84.7729 94.5765C84.9891 94.5765 85.167 94.3953 85.167 94.175C85.167 93.9796 85.0271 93.8114 84.8382 93.779Z" fill="white"/>
<path d="M97.575 71.8047C97.3724 71.8184 97.2066 71.9784 97.1821 72.1836C97.1816 72.1906 97.1816 72.1978 97.1816 72.2048C97.1816 72.4241 97.3588 72.6048 97.5743 72.6048C97.7895 72.6048 97.9669 72.4241 97.9669 72.2048C97.9669 71.9856 97.79 71.8052 97.575 71.8047Z" fill="white"/>
<path d="M92.5219 86.1641C92.5209 86.1641 92.52 86.1641 92.519 86.1641C92.3028 86.1641 92.125 86.3453 92.125 86.5656C92.125 86.7847 92.3012 86.9654 92.5162 86.9671C92.7202 86.9601 92.8895 86.7993 92.9107 86.5927C92.9138 86.3685 92.7414 86.1787 92.5219 86.1641Z" fill="white"/>
<path d="M55.9245 94.9141C55.7177 94.9253 55.5505 95.0957 55.5392 95.3065C55.5342 95.5181 55.697 95.6984 55.9045 95.7111C55.908 95.7111 55.9115 95.7113 55.9151 95.7113C56.1357 95.7113 56.3178 95.528 56.3206 95.3031C56.2957 95.095 56.1294 94.9318 55.9245 94.9141Z" fill="white"/>
<path d="M78.9746 96.7031C78.7718 96.7149 78.6048 96.8745 78.5803 97.0799C78.5801 97.084 78.5801 97.0878 78.5801 97.0919C78.5801 97.312 78.7579 97.493 78.9736 97.493C79.175 97.493 79.3453 97.3358 79.3653 97.1318C79.3653 96.9078 79.1936 96.7197 78.9746 96.7031Z" fill="white"/>
<path d="M74.8098 97.8828C74.8079 97.8828 74.806 97.8828 74.8042 97.8828C74.5912 97.8828 74.416 98.0614 74.416 98.2783C74.416 98.2838 74.416 98.2891 74.4163 98.2946C74.4306 98.501 74.5936 98.6669 74.7962 98.681C75.0152 98.6688 75.1904 98.4852 75.1965 98.2618C75.1796 98.0554 75.0131 97.8919 74.8098 97.8828Z" fill="white"/>
<path d="M63.9732 42.1205C64.1776 42.1176 64.3474 41.9529 64.3604 41.7451C64.3611 41.5198 64.1852 41.3311 63.9642 41.3203C63.7617 41.3383 63.5978 41.5003 63.5742 41.7062C63.5742 41.7084 63.5742 41.7103 63.5742 41.7125C63.5742 41.9357 63.7542 42.1197 63.9732 42.1205Z" fill="white"/>
<path d="M80.8979 44.0905C81.1179 44.0833 81.2955 43.8976 81.2969 43.6732C81.2922 43.4567 81.116 43.2812 80.9033 43.2812C80.6876 43.2812 80.5098 43.4622 80.5098 43.6823C80.5098 43.6909 80.5102 43.6998 80.5107 43.7084C80.5279 43.9156 80.6942 44.0795 80.8979 44.0905Z" fill="white"/>
<path d="M55.8204 45.1015C55.8315 45.1024 55.8423 45.1029 55.8534 45.1029C56.0628 45.1029 56.2385 44.9356 56.2528 44.7228C56.2531 44.7168 56.2533 44.7108 56.2533 44.7045C56.2533 44.4852 56.0762 44.3047 55.8609 44.3047C55.6523 44.3047 55.4782 44.4741 55.4688 44.6865C55.4662 44.8946 55.6181 45.0736 55.8204 45.1015Z" fill="white"/>
<path d="M52.2458 47.5383C52.4479 47.5215 52.612 47.3614 52.6375 47.1564C52.6389 46.932 52.4601 46.7458 52.2399 46.7422C52.0357 46.7408 51.8652 46.9073 51.8577 47.1152C51.8574 47.1197 51.8574 47.1245 51.8574 47.1291C51.8574 47.3484 52.0305 47.5308 52.2458 47.5383Z" fill="white"/>
<path d="M45.0882 55.7325C45.303 55.7306 45.4787 55.5498 45.4787 55.331C45.4787 55.1157 45.3089 54.9369 45.0979 54.9297C45.0962 54.9297 45.0946 54.9297 45.0929 54.9297C44.877 54.9297 44.6992 55.1109 44.6992 55.331C44.6992 55.5494 44.8739 55.7298 45.0882 55.7325Z" fill="white"/>
<path d="M44.0468 57.6696C44.2665 57.6641 44.4467 57.4841 44.4568 57.2604C44.4495 57.0468 44.2752 56.875 44.0654 56.875C43.8506 56.875 43.6737 57.0552 43.6737 57.2741C43.6737 57.2746 43.6737 57.2751 43.6737 57.2756C43.6824 57.4832 43.8435 57.6533 44.0468 57.6696Z" fill="white"/>
<path d="M43.1839 59.6735C43.3872 59.6677 43.5535 59.5 43.5608 59.2928C43.5636 59.0684 43.3862 58.8808 43.1663 58.875C42.9654 58.899 42.8052 59.0603 42.7793 59.2648C42.7812 59.4896 42.9632 59.6735 43.1839 59.6735Z" fill="white"/>
<path d="M41.8388 63.8861C41.8499 63.887 41.8612 63.8875 41.8723 63.8875C42.0814 63.8875 42.2562 63.7181 42.2665 63.5052C42.2665 63.5014 42.2668 63.4978 42.2668 63.4939C42.2668 63.2724 42.0897 63.0893 41.8723 63.0859C41.6688 63.1003 41.5039 63.2643 41.4844 63.4711C41.4856 63.6787 41.637 63.8563 41.8388 63.8861Z" fill="white"/>
<path d="M96.9219 65.5186C96.9355 65.741 97.1148 65.9186 97.3333 65.9266C97.5528 65.9098 97.7203 65.713 97.7059 65.4893C97.6864 65.2824 97.5095 65.1247 97.3055 65.1331C97.1035 65.1492 96.9405 65.3129 96.9219 65.5186Z" fill="white"/>
<path d="M96.5217 63.3567C96.5224 63.5789 96.7021 63.7616 96.9202 63.7616C96.9254 63.7616 96.9308 63.7616 96.936 63.7613C97.1407 63.7316 97.294 63.5504 97.2931 63.3396C97.2789 63.1287 97.102 62.9641 96.8945 62.9689C96.8922 62.9689 96.8898 62.9689 96.8875 62.9689C96.6866 62.9689 96.5215 63.1371 96.5215 63.3418C96.5215 63.3466 96.5215 63.3516 96.5217 63.3567Z" fill="white"/>
<path d="M93.7198 84.336C93.5123 84.3329 93.335 84.4949 93.3154 84.7053C93.3147 84.7154 93.3142 84.7255 93.3142 84.7358C93.3142 84.9542 93.4906 85.134 93.705 85.134C93.9172 85.134 94.0926 84.9576 94.0957 84.7413C94.0858 84.5311 93.9252 84.3578 93.7198 84.336Z" fill="white"/>
<path d="M57.806 44.1249C58.0076 44.1127 58.1668 43.9404 58.1668 43.7347C58.1668 43.5201 57.9937 43.3438 57.7831 43.3438C57.5827 43.3438 57.4143 43.5038 57.4004 43.7076C57.4004 43.7085 57.4004 43.7093 57.4004 43.7102C57.4004 43.9373 57.5832 44.1242 57.806 44.1249Z" fill="white"/>
<path d="M93.6779 55.5975C93.8814 55.5812 94.0404 55.4057 94.0404 55.1977C94.0404 54.9824 93.8701 54.8034 93.6588 54.7969C93.4468 54.8022 93.2754 54.9812 93.2754 55.1972C93.2754 55.4168 93.4527 55.5975 93.6682 55.5975C93.6715 55.5975 93.6748 55.5975 93.6779 55.5975Z" fill="white"/>
<path d="M46.2731 53.8507C46.4809 53.8451 46.6509 53.674 46.6589 53.4623C46.6504 53.2403 46.4691 53.0625 46.251 53.0625C46.2458 53.0625 46.2404 53.0625 46.235 53.0627C46.0279 53.0822 45.8697 53.2653 45.8772 53.4772C45.8897 53.6884 46.0656 53.8543 46.2731 53.8507Z" fill="white"/>
<path d="M49.0073 50.4647C49.2117 50.4673 49.3867 50.3087 49.4077 50.1013C49.4185 49.8772 49.2503 49.6821 49.0308 49.6641C49.0292 49.6641 49.0275 49.6641 49.0259 49.6641C48.8102 49.6641 48.6328 49.8448 48.6328 50.0646C48.6328 50.2773 48.7989 50.4546 49.0073 50.4647Z" fill="white"/>
<path d="M47.6448 87.9531C47.6444 87.9531 47.6439 87.9531 47.6434 87.9531C47.4256 87.9531 47.2461 88.136 47.2461 88.358C47.2461 88.3623 47.2461 88.3664 47.2463 88.3707C47.2555 88.5807 47.4263 88.7492 47.6326 88.7514C47.8384 88.7384 48.0038 88.5685 48.0148 88.3587C48.0087 88.1492 47.8495 87.9747 47.6448 87.9531Z" fill="white"/>
<path d="M86.4592 47.455C86.4655 47.4552 86.4719 47.4554 86.4783 47.4554C86.6935 47.4554 86.8704 47.275 86.8704 47.0558C86.8704 46.837 86.6942 46.6567 86.4794 46.6562C86.2684 46.6622 86.0979 46.841 86.0979 47.0561C86.0979 47.2637 86.2562 47.4384 86.4592 47.455Z" fill="white"/>
<path d="M52.3187 92.5395C52.3124 92.5393 52.3063 92.5391 52.2999 92.5391C52.0823 92.5391 51.9028 92.7212 51.9021 92.943C51.92 93.1525 52.0863 93.3195 52.2921 93.3349C52.4989 93.326 52.6673 93.1568 52.6793 92.9463C52.688 92.7347 52.5265 92.552 52.3187 92.5395Z" fill="white"/>
<path d="M82.876 45.0629C83.0814 45.0442 83.2401 44.8664 83.2394 44.6564C83.227 44.4468 83.0546 44.2812 82.8485 44.2812C82.6386 44.2812 82.4643 44.4531 82.457 44.6667C82.461 44.8856 82.6389 45.0636 82.8539 45.0636C82.8612 45.0636 82.8687 45.0634 82.876 45.0629Z" fill="white"/>
<path d="M61.9624 97.4068C61.7561 97.396 61.574 97.5503 61.5472 97.7591C61.5392 97.9869 61.7156 98.1813 61.9391 98.1911C62.1447 98.1803 62.3131 98.0159 62.3329 97.8071C62.332 97.5964 62.169 97.42 61.9624 97.4068Z" fill="white"/>
<path d="M41.1374 70.4427C41.1381 70.4427 41.1388 70.4427 41.1395 70.4427C41.3554 70.4427 41.5335 70.2615 41.5335 70.0412C41.5335 69.8315 41.3719 69.6551 41.1666 69.6407C40.9628 69.6383 40.7883 69.7945 40.7643 70.0006C40.7523 70.2248 40.9181 70.4214 41.1374 70.4427Z" fill="white"/>
<path d="M76.8538 42.5928C77.0597 42.5751 77.222 42.4013 77.229 42.1908C77.2085 41.9818 77.0406 41.8172 76.8348 41.8047C76.6216 41.8068 76.4473 41.9864 76.4473 42.2036C76.4473 42.2139 76.4478 42.224 76.4485 42.2343C76.4645 42.4452 76.6466 42.6063 76.8538 42.5928Z" fill="white"/>
<path d="M66.1339 41.7968C66.3414 41.7797 66.5009 41.5964 66.4926 41.3845C66.4853 41.1725 66.3099 41.0033 66.1017 41.0079C65.8956 41.0177 65.7272 41.1841 65.7109 41.3936C65.722 41.6209 65.9107 41.8009 66.1339 41.7968Z" fill="white"/>
<path d="M68.2723 41.628C68.4739 41.6091 68.6362 41.4468 68.6586 41.2416C68.6597 41.0165 68.4791 40.83 68.2582 40.8281C68.054 40.8305 67.886 41 67.8813 41.208C67.8811 41.214 67.8809 41.2203 67.8809 41.2263C67.8809 41.4456 68.057 41.6264 68.2723 41.628Z" fill="white"/>
<path d="M96.3449 61.6439C96.5493 61.6285 96.7093 61.4529 96.7093 61.2443C96.7093 61.0307 96.5421 60.8529 96.3327 60.8438C96.1167 60.8517 95.9434 61.0348 95.9434 61.2551C95.9434 61.2621 95.9436 61.2688 95.9438 61.2757C95.962 61.4855 96.1384 61.6473 96.3449 61.6439Z" fill="white"/>
<path d="M96.3452 78.2812C96.1407 78.2877 95.974 78.4569 95.9672 78.6652C95.9603 78.8726 96.1109 79.0538 96.3127 79.0809C96.5331 79.096 96.727 78.9244 96.743 78.6998C96.743 78.4752 96.5656 78.2884 96.3452 78.2812Z" fill="white"/>
<path d="M95.5605 59.5707C95.5671 59.571 95.5735 59.5712 95.5801 59.5712C95.7956 59.5712 95.9727 59.3907 95.9727 59.1711C95.9727 59.1702 95.9727 59.1658 95.9727 59.1646C95.9727 58.9501 95.7993 58.7734 95.5888 58.7734C95.3832 58.7734 95.212 58.9419 95.2051 59.1514C95.2018 59.3619 95.3556 59.5434 95.5605 59.5707Z" fill="white"/>
<path d="M88.1813 48.853C88.3855 48.8251 88.5383 48.6437 88.5346 48.4339C88.5296 48.2222 88.356 48.0518 88.1483 48.0547C87.9425 48.0619 87.7757 48.2342 87.7715 48.4442C87.7715 48.4464 87.7715 48.4483 87.7715 48.4505C87.7715 48.6715 87.9498 48.8532 88.1667 48.8532C88.1716 48.8532 88.1763 48.8532 88.1813 48.853Z" fill="white"/>
<path d="M92.4714 53.76C92.6784 53.7655 92.8538 53.5978 92.8611 53.3868C92.8619 53.3772 92.8621 53.3676 92.8621 53.358C92.8621 53.1444 92.6899 52.9688 92.4803 52.9688C92.2815 52.9688 92.1143 53.1269 92.0995 53.329C92.0971 53.3467 92.0957 53.3645 92.0957 53.3823C92.0957 53.5896 92.2632 53.76 92.4664 53.76C92.4681 53.76 92.4697 53.76 92.4714 53.76Z" fill="white"/>
<path d="M47.5649 52.1174C47.5656 52.1174 47.5663 52.1174 47.567 52.1174C47.7773 52.1174 47.9505 51.941 47.9505 51.7267C47.9505 51.5123 47.7773 51.3359 47.567 51.3359C47.3581 51.3359 47.1857 51.5097 47.1836 51.7226C47.1933 51.9328 47.3586 52.1042 47.5649 52.1174Z" fill="white"/>
<path d="M89.7058 50.3749C89.9138 50.3814 90.0902 50.2129 90.0972 50.001C90.1041 49.7903 89.951 49.6064 89.7458 49.5786C89.7397 49.5784 89.7336 49.5781 89.7275 49.5781C89.5105 49.5781 89.332 49.76 89.332 49.9811C89.332 49.9818 89.332 49.9825 89.332 49.9832C89.332 49.9859 89.332 49.9883 89.332 49.9909C89.332 50.2004 89.5002 50.3732 89.7058 50.3749Z" fill="white"/>
<path d="M91.1664 52.0066C91.3737 52.0068 91.5444 51.8338 91.5451 51.6226C91.5454 51.6161 91.5456 51.6098 91.5456 51.6034C91.5456 51.3982 91.3803 51.229 91.1789 51.228C91.1681 51.227 91.1572 51.2266 91.1466 51.2266C90.9366 51.2266 90.7637 51.4027 90.7637 51.6168C90.7637 51.8309 90.9366 52.007 91.1466 52.007C91.1532 52.007 91.1598 52.0068 91.1664 52.0066Z" fill="white"/>
<path d="M94.7387 82.3906C94.5315 82.3887 94.3562 82.5534 94.3416 82.7641C94.3418 82.9868 94.5216 83.1699 94.7401 83.1699C94.7444 83.1699 94.7488 83.1699 94.7531 83.1697C94.9606 83.163 95.1268 82.9849 95.1228 82.7732C95.1158 82.5627 94.9453 82.393 94.7387 82.3906Z" fill="white"/>
<path d="M78.9197 43.2402C79.123 43.2311 79.2855 43.0583 79.2855 42.8509C79.2855 42.6371 79.1129 42.4609 78.903 42.4609C78.8974 42.4609 78.892 42.4612 78.8863 42.4614C78.6807 42.4703 78.5123 42.6373 78.4982 42.8466C78.5001 43.0638 78.6758 43.2414 78.8889 43.2414C78.8993 43.2414 78.9094 43.2409 78.9197 43.2402Z" fill="white"/>
<path d="M61.8483 42.6438C62.0693 42.6438 62.2508 42.4588 62.2508 42.2336V42.2332C62.2461 42.0256 62.0796 41.8561 61.8759 41.8518C61.871 41.8516 61.8658 41.8516 61.8608 41.8516C61.6451 41.8516 61.4675 42.032 61.4668 42.2519C61.4889 42.4564 61.6479 42.6196 61.8483 42.6438Z" fill="white"/>
<path d="M96.9253 76.1797C96.7193 76.1854 96.5527 76.3599 96.5527 76.5699C96.5527 76.7842 96.7258 76.9604 96.9359 76.9604C97.1463 76.9604 97.3191 76.7842 97.3191 76.5699C97.3191 76.568 97.3191 76.5658 97.3191 76.5637C97.3024 76.3534 97.1321 76.1874 96.9253 76.1797Z" fill="white"/>
<path d="M76.8831 97.3911C76.6775 97.406 76.5188 97.5874 76.5277 97.7972C76.5277 98.0026 76.6937 98.1718 76.8953 98.1718C76.9001 98.1718 76.9048 98.1718 76.9095 98.1716C77.1158 98.1721 77.287 98.0021 77.2922 97.7921C77.2922 97.7902 77.2922 97.7881 77.2922 97.7861C77.2922 97.5692 77.117 97.3906 76.9041 97.3906C76.897 97.3906 76.8902 97.3906 76.8831 97.3911Z" fill="white"/>
<path d="M49.0241 89.5961C48.8256 89.6108 48.6699 89.7814 48.6699 89.9845C48.6699 90.1981 48.8423 90.3737 49.0519 90.3737C49.0701 90.3737 49.0884 90.3723 49.1066 90.3697C49.3002 90.3493 49.4493 90.181 49.4493 89.9828C49.4493 89.7692 49.2769 89.5938 49.0675 89.5938C49.0531 89.5938 49.0385 89.5945 49.0241 89.5961Z" fill="white"/>
<path d="M66.1754 98.2188C65.9691 98.2315 65.803 98.4011 65.791 98.6114C65.791 98.6135 65.791 98.6155 65.791 98.6176C65.791 98.8363 65.9677 99.0165 66.1825 99.0165C66.3973 99.0165 66.5739 98.8363 66.5739 98.6176C66.5739 98.3987 66.3973 98.2188 66.1825 98.2188C66.1801 98.2188 66.1777 98.2188 66.1754 98.2188Z" fill="white"/>
<path d="M88.2202 91.1099C88.0125 91.0993 87.8311 91.2601 87.8125 91.4713C87.8125 91.4739 87.8125 91.4768 87.8125 91.4795C87.8125 91.7034 87.9931 91.8875 88.2129 91.8875C88.2141 91.8875 88.2152 91.8875 88.2164 91.8875C88.4241 91.8843 88.5935 91.7091 88.5933 91.4975C88.5935 91.4936 88.5935 91.4895 88.5935 91.4857C88.5935 91.2795 88.427 91.1099 88.2247 91.1099C88.2232 91.1099 88.2216 91.1099 88.2202 91.1099Z" fill="white"/>
<path d="M68.3574 98.3672C68.1407 98.3681 67.9629 98.5503 67.9629 98.7711C67.9629 98.7783 67.9629 98.7857 67.9634 98.7929C67.9756 98.9981 68.1447 99.1604 68.3466 99.1604C68.5571 99.1604 68.7305 98.9837 68.7305 98.7692V98.7689C68.7246 98.5587 68.563 98.3847 68.3574 98.3672Z" fill="white"/>
<path d="M86.5149 92.5244C86.3079 92.5347 86.143 92.7109 86.1426 92.9221C86.1555 93.1318 86.3249 93.2994 86.5312 93.3061C86.7382 93.3042 86.9106 93.1371 86.9231 92.9266C86.9233 92.9221 86.9233 92.9173 86.9233 92.9127C86.9233 92.6991 86.7509 92.5234 86.5413 92.5234C86.5326 92.5234 86.5236 92.5237 86.5149 92.5244Z" fill="white"/>
<path d="M54.104 93.7974C54.0972 93.7969 54.0904 93.7969 54.0835 93.7969C53.8687 93.7969 53.6919 93.9769 53.6919 94.196C53.6919 94.1979 53.6919 94.1998 53.6919 94.2018C53.6916 94.2075 53.6914 94.2133 53.6914 94.219C53.6914 94.4247 53.8574 94.5939 54.0593 94.5939C54.0598 94.5939 54.0602 94.5939 54.0607 94.5939C54.0656 94.5942 54.0704 94.5942 54.0753 94.5942C54.2781 94.5942 54.4462 94.4274 54.4519 94.2207C54.4604 94.0105 54.3087 93.8257 54.104 93.7974Z" fill="white"/>
<path d="M50.5889 48.9289C50.795 48.9109 50.9551 48.733 50.9551 48.5223C50.9532 48.308 50.7797 48.1328 50.5693 48.1328C50.5566 48.1328 50.5439 48.1335 50.5312 48.1347C50.3388 48.1518 50.1895 48.3176 50.1895 48.5144C50.1895 48.5283 50.1902 48.542 50.1916 48.5557C50.2076 48.7657 50.3821 48.9296 50.5889 48.9289Z" fill="white"/>
<path d="M41.1954 68.2333C41.2079 68.2345 41.2206 68.2352 41.2331 68.2352C41.4406 68.2352 41.6123 68.0627 41.6149 67.8512C41.6222 67.6422 41.4609 67.4636 41.256 67.4538C41.0365 67.4411 40.8452 67.6141 40.832 67.8378C40.8337 68.0447 40.9929 68.2179 41.1954 68.2333Z" fill="white"/>
<path d="M84.7308 46.1799C84.9324 46.1736 85.0949 46.003 85.0949 45.7976C85.0949 45.7911 85.0947 45.7848 85.0944 45.7786C85.089 45.5667 84.915 45.3958 84.7068 45.3987C84.7035 45.3987 84.6999 45.3984 84.6966 45.3984C84.4858 45.3984 84.3125 45.5753 84.3125 45.7899C84.3125 46.0047 84.4858 46.1813 84.6966 46.1813C84.7082 46.1813 84.7195 46.1808 84.7308 46.1799Z" fill="white"/>
<path d="M97.3333 74C97.127 74.0096 96.96 74.1805 96.9516 74.391C96.9421 74.6024 97.1044 74.7845 97.3119 74.7951C97.3216 74.7958 97.3315 74.7963 97.3411 74.7963C97.5479 74.7963 97.7179 74.623 97.7179 74.4123C97.7179 74.4054 97.7179 74.3982 97.7175 74.3912C97.7052 74.1814 97.5392 74.0125 97.3333 74Z" fill="white"/>
<path d="M80.9985 95.8994C80.9896 95.8987 80.9804 95.8984 80.9715 95.8984C80.7633 95.8984 80.5918 96.0732 80.5918 96.2853C80.5918 96.2916 80.592 96.2978 80.5923 96.304C80.6005 96.516 80.7757 96.6847 80.9837 96.6813C80.9861 96.6813 80.9886 96.6813 80.991 96.6813C81.2015 96.6813 81.3749 96.5049 81.3749 96.2904C81.3749 96.0787 81.2063 95.9035 80.9985 95.8994Z" fill="white"/>
<path d="M42.276 76.5875C42.2692 76.3789 42.0989 76.2109 41.894 76.2109C41.6858 76.2109 41.5141 76.3842 41.5117 76.5961C41.5138 76.8205 41.6954 77.0041 41.9159 77.0041C41.9187 77.0041 41.9213 77.0041 41.9241 77.0041C42.1314 76.9852 42.2885 76.7992 42.276 76.5875Z" fill="white"/>
<path d="M41.6201 72.2512C41.6154 72.0395 41.4437 71.8679 41.236 71.8672C41.0172 71.872 40.8398 72.0568 40.8398 72.2797C40.8398 72.2836 40.8401 72.2874 40.8401 72.2913C40.8646 72.501 41.0473 72.6573 41.2544 72.6455C41.4557 72.6443 41.6206 72.4753 41.6206 72.2701C41.6206 72.2639 41.6204 72.2574 41.6201 72.2512Z" fill="white"/>
<path d="M42.4949 78.3528C42.4854 78.352 42.4758 78.3516 42.4664 78.3516C42.2586 78.3516 42.0879 78.5258 42.0879 78.7372C42.0879 78.744 42.0881 78.7504 42.0884 78.7572C42.0902 78.9645 42.2582 79.134 42.4617 79.134C42.4661 79.134 42.4708 79.134 42.4753 79.1337C42.6835 79.1373 42.858 78.9667 42.8632 78.7545C42.8677 78.5424 42.7028 78.3626 42.4949 78.3528Z" fill="white"/>
<path d="M46.292 86.2034C46.0859 86.2197 45.9267 86.4009 45.9338 86.6114C45.9361 86.8194 46.1045 86.9891 46.3087 86.9891C46.3115 86.9891 46.3141 86.9891 46.3169 86.9891C46.321 86.9894 46.325 86.9894 46.329 86.9894C46.531 86.9894 46.6971 86.8199 46.6971 86.6142C46.6971 86.6128 46.6971 86.6116 46.6971 86.6102C46.6971 86.607 46.6971 86.6037 46.6971 86.6006C46.6971 86.3824 46.5211 86.2031 46.3071 86.2031C46.3021 86.2031 46.2969 86.2031 46.292 86.2034Z" fill="white"/>
<path d="M43.2215 80.4077C43.2107 80.4067 43.1996 80.4062 43.1886 80.4062C42.9933 80.4062 42.8311 80.5668 42.8254 80.7658C42.8245 80.7763 42.8242 80.7866 42.8242 80.7972C42.8242 81.011 42.9969 81.187 43.2067 81.187C43.4166 81.187 43.5892 81.011 43.5892 80.7972C43.5892 80.5891 43.4255 80.4158 43.2215 80.4077Z" fill="white"/>
<path d="M94.7263 57.529C94.9319 57.5096 95.0918 57.333 95.0942 57.1225C95.0796 56.9113 94.9032 56.7466 94.6955 56.7502C94.691 56.75 94.6863 56.75 94.6818 56.75C94.4792 56.75 94.3125 56.9199 94.3125 57.1263C94.3125 57.1275 94.3125 57.1285 94.3125 57.1297C94.3125 57.1326 94.3125 57.1357 94.3125 57.1386C94.3125 57.3534 94.4858 57.5302 94.6969 57.5302C94.7065 57.5302 94.7164 57.5298 94.7263 57.529Z" fill="white"/>
<path d="M42.4369 61.7388C42.4449 61.7393 42.4527 61.7395 42.4607 61.7395C42.6644 61.7395 42.8323 61.5686 42.8323 61.3608C42.8323 61.3502 42.8319 61.3394 42.8309 61.3289C42.8213 61.1189 42.6449 60.9535 42.4388 60.9612C42.2344 60.9614 42.0664 61.1328 42.0664 61.3411C42.0664 61.3437 42.0664 61.3461 42.0664 61.3488C42.0641 61.559 42.2306 61.7345 42.4369 61.7388Z" fill="white"/>
<path d="M45.1155 84.3679C44.9151 84.3679 44.75 84.5361 44.75 84.7404C44.75 84.7459 44.7502 84.7514 44.7505 84.7569C44.7507 84.9691 44.9222 85.1433 45.1304 85.1433C45.3388 85.1433 45.5103 84.9686 45.5103 84.7562C45.5103 84.7473 45.51 84.7382 45.5093 84.7291C45.5008 84.528 45.3362 84.3672 45.1386 84.3672C45.1311 84.3672 45.1233 84.3674 45.1155 84.3679Z" fill="white"/>
<path d="M59.8866 96.7422C59.8845 96.7422 59.8826 96.7422 59.8805 96.7422C59.6716 96.7422 59.4999 96.9171 59.4999 97.13C59.4999 97.1413 59.5004 97.1526 59.5013 97.1639C59.51 97.3633 59.6735 97.5227 59.8692 97.5227C59.8791 97.5227 59.8887 97.5222 59.8984 97.5215C60.1045 97.5143 60.2691 97.3371 60.2648 97.1269C60.2606 96.9171 60.0924 96.746 59.8866 96.7422Z" fill="white"/>
<path d="M72.6095 41.7658C72.8142 41.7474 72.9713 41.5671 72.9651 41.3578C72.9552 41.1483 72.7819 40.9818 72.5761 40.9844C72.5749 40.9844 72.5737 40.9844 72.5725 40.9844C72.3676 40.9844 72.1992 41.156 72.1992 41.3648C72.1992 41.3655 72.1992 41.3662 72.1992 41.367C72.1992 41.3691 72.1992 41.3713 72.1992 41.3732C72.1992 41.589 72.3735 41.7666 72.5852 41.7666C72.5932 41.7666 72.6015 41.7663 72.6095 41.7658Z" fill="white"/>
<path d="M72.6818 98.219C72.4755 98.2118 72.2986 98.3755 72.2859 98.5855C72.2854 98.5939 72.2852 98.602 72.2852 98.6104C72.2852 98.8252 72.4585 99.0021 72.6695 99.0021C72.8803 99.0021 73.0539 98.8252 73.0539 98.6104C73.0539 98.4004 72.8879 98.2257 72.6818 98.219Z" fill="white"/>
</g>
<defs>
<filter id="filter0_dd_1_736" x="0.578125" y="0" width="137.658" height="140" filterUnits="userSpaceOnUse" color-interpolation-filters="sRGB">
<feFlood flood-opacity="0" result="BackgroundImageFix"/>
<feColorMatrix in="SourceAlpha" type="matrix" values="0 0 0 0 0 0 0 0 0 0 0 0 0 0 0 0 0 0 127 0" result="hardAlpha"/>
<feOffset/>
<feGaussianBlur stdDeviation="5"/>
<feComposite in2="hardAlpha" operator="out"/>
<feColorMatrix type="matrix" values="0 0 0 0 0.8423 0 0 0 0 0.585 0 0 0 0 1 0 0 0 0.5 0"/>
<feBlend mode="normal" in2="BackgroundImageFix" result="effect1_dropShadow_1_736"/>
<feColorMatrix in="SourceAlpha" type="matrix" values="0 0 0 0 0 0 0 0 0 0 0 0 0 0 0 0 0 0 127 0" result="hardAlpha"/>
<feOffset/>
<feGaussianBlur stdDeviation="5"/>
<feComposite in2="hardAlpha" operator="out"/>
<feColorMatrix type="matrix" values="0 0 0 0 0.8423 0 0 0 0 0.585 0 0 0 0 1 0 0 0 1 0"/>
<feBlend mode="normal" in2="effect1_dropShadow_1_736" result="effect2_dropShadow_1_736"/>
<feBlend mode="normal" in="SourceGraphic" in2="effect2_dropShadow_1_736" result="shape"/>
</filter>
</defs>
</svg>
