<svg width="258" height="96" viewBox="0 0 258 96" fill="none" xmlns="http://www.w3.org/2000/svg">
<path d="M244.837 28.3411C248.982 32.9364 253.754 53.393 257.354 72.5957C259.606 84.6049 250.25 95.4848 238.032 95.5083L1.74203 95.9632C0.575745 95.9655 -0.310303 94.8066 0.16745 93.7427C0.269196 93.516 0.325714 93.3197 0.365601 93.0745C0.632599 91.4324 1.53644 89.628 3.9939 85.5311C4.85703 84.0921 5.88161 82.7332 7.20889 81.7066C12.8467 77.3461 17.7314 78.3787 19.6181 79.5882C20.1263 79.9425 21.3347 80.7699 22.9721 81.8605C24.4836 82.8672 26.2085 83.9328 27.9539 83.431C30.2731 82.7642 31.8248 80.3271 32.4144 78.8323C33.0651 77.4883 35.0171 72.6333 37.6197 63.9648C39.2761 57.0688 41.7743 57.0515 43.4546 58.4322C44.3145 59.1388 44.4837 59.6088 45.2703 60.3962C47.3216 62.4496 50.8907 64.5015 52.6402 62.1857C54.17 60.161 55.1884 56.955 55.6213 54.8931C57.1395 49.0973 60.6531 36.2457 62.5617 31.2059C64.6399 27.1816 67.3173 27.9239 69.0481 29.3272C69.8642 29.989 70.4071 30.9091 70.9178 31.8274C73.2103 35.9502 77.0026 42.7297 78.3944 45.0654C79.9559 47.6861 81.7923 47.6693 82.5152 47.3333C82.9818 47.0924 84.0059 46.4455 85.1878 45.4299C86.1944 44.5648 87.1694 43.4851 88.4938 43.3977C89.205 43.3508 89.8581 43.5133 90.353 43.7225C90.786 43.9055 91.1395 44.2262 91.4698 44.5607C91.816 44.9114 92.2538 45.3538 92.7213 45.8246C93.6643 46.774 95.1665 47.7145 96.1555 46.8132C96.4365 46.557 96.7803 46.217 96.9917 45.901C98.2627 44.0008 100.253 37.0422 101.167 33.4738C101.421 32.5318 102.065 30.484 103.025 28.0938C103.883 25.9571 105.742 23.0918 107.501 24.5784C110.391 27.0217 112.221 36.9973 112.879 43.0495C113.747 50.2732 115.525 65.4263 115.699 68.2486C115.898 71.4846 116.827 74.7206 117.649 77.9566C117.796 78.5389 118.16 79.5715 118.556 80.0231C119.935 81.5945 121.268 78.523 122.348 76.7334C123.63 74.6121 125.116 72.956 126.285 71.874C127.135 71.0867 128.157 70.5282 129.196 70.0151C132.014 68.6238 136.175 66.3858 138.038 64.7207C139.425 63.4811 140.883 63.2578 142.019 63.4064C143.182 63.5585 144.099 64.4035 145.151 64.9222C146.027 65.3542 147.176 65.7287 148.449 65.7287C151.572 65.7287 153.943 60.5209 154.738 57.917C155.967 55.0611 158.642 48.7445 159.51 46.3254C160.384 43.8876 161.399 41.7773 163.124 39.3345C164 38.0926 165.034 36.8303 166.497 36.4183C168.475 35.8613 170.046 37.03 171.349 38.4888C172.644 39.9379 174.068 42.0288 175.918 41.4335C176.914 41.113 177.744 40.1443 178.496 38.8872C179.033 37.9892 179.561 37.08 179.984 36.1229C181.743 32.1455 184.187 22.6722 185.319 17.8504C185.898 16.0024 187.705 10.593 190.308 3.73884C193.951 -2.91373 198.043 3.99083 199.634 8.27469C203.104 17.7664 210.348 37.3545 211.563 39.7736C213.081 42.7975 213.948 43.0495 216.551 43.0495C218.884 43.2189 222.605 39.0109 224.935 35.8684L224.969 35.8229C225.752 34.7676 226.564 33.671 227.821 33.2936C228.959 32.9518 229.868 34.0231 230.777 34.7894C232.617 36.3417 234.015 35.4976 234.553 34.7338C235.815 33.3229 238.123 30.8958 240.027 29.2715C241.46 28.0493 243.576 26.9426 244.837 28.3411Z" fill="url(#paint0_linear_1_1126)"/>
<defs>
<linearGradient id="paint0_linear_1_1126" x1="130.339" y1="0.975098" x2="130.339" y2="95.9677" gradientUnits="userSpaceOnUse">
<stop stop-color="#EB00FF"/>
<stop offset="1" stop-color="#D3FFFC" stop-opacity="0"/>
</linearGradient>
</defs>
</svg>
