<svg width="12" height="13" viewBox="0 0 12 13" fill="none" xmlns="http://www.w3.org/2000/svg">
<path d="M11.0667 12.5L6.86667 8.3C6.53333 8.56667 6.15 8.77778 5.71667 8.93333C5.28333 9.08889 4.82222 9.16667 4.33333 9.16667C3.12222 9.16667 2.09733 8.74711 1.25867 7.908C0.42 7.06889 0.000444444 6.044 0 4.83333C0 3.62222 0.419556 2.59733 1.25867 1.75867C2.09778 0.92 3.12267 0.500444 4.33333 0.5C5.54444 0.5 6.56933 0.919556 7.408 1.75867C8.24667 2.59778 8.66622 3.62267 8.66667 4.83333C8.66667 5.32222 8.58889 5.78333 8.43333 6.21667C8.27778 6.65 8.06667 7.03333 7.8 7.36667L12 11.5667L11.0667 12.5ZM4.33333 7.83333C5.16667 7.83333 5.87511 7.54156 6.45867 6.958C7.04222 6.37444 7.33378 5.66622 7.33333 4.83333C7.33333 4 7.04156 3.29156 6.458 2.708C5.87444 2.12444 5.16622 1.83289 4.33333 1.83333C3.5 1.83333 2.79156 2.12511 2.208 2.70867C1.62444 3.29222 1.33289 4.00044 1.33333 4.83333C1.33333 5.66667 1.62511 6.37511 2.20867 6.95867C2.79222 7.54222 3.50044 7.83378 4.33333 7.83333Z" fill="white"/>
</svg>
